<?xml version="1.0" encoding="utf-8"?>
<!-- Generator: Adobe Illustrator 26.2.1, SVG Export Plug-In . SVG Version: 6.00 Build 0)  -->
<svg version="1.1" id="Layer_1" xmlns="http://www.w3.org/2000/svg" xmlns:xlink="http://www.w3.org/1999/xlink" x="0px" y="0px"
	 viewBox="0 0 704 464" style="enable-background:new 0 0 704 464;" xml:space="preserve">
<style type="text/css">
	.st0{fill:#2B2A2A;}
	.st1{fill:#FFB524;}
	.st2{opacity:0.2;fill:#FFFFFF;enable-background:new    ;}
	.st3{fill:#ED9F06;}
	.st4{fill:url(#SVGID_1_);}
	.st5{fill:none;stroke:#FE5000;stroke-width:0.9197;stroke-miterlimit:10;}
	.st6{fill:url(#SVGID_00000167379743472992865110000005495182701028967857_);}
	.st7{fill:#FE5000;}
	.st8{fill:url(#SVGID_00000130616605854250117830000004086939279791218854_);}
	.st9{fill:none;stroke:#FFFFFF;stroke-width:0.9197;stroke-miterlimit:10;}
	.st10{fill:url(#SVGID_00000088815881374350199590000000970614433527744384_);}
	.st11{fill:#FFFFFF;}
	.st12{fill:url(#SVGID_00000095305942517748223800000001123772935986148776_);}
	.st13{fill:#FFD176;}
	.st14{fill:url(#SVGID_00000083082776841810487460000001719225667756374460_);}
	.st15{fill:url(#SVGID_00000183935266205487620800000010827322709381395381_);}
	.st16{fill:url(#SVGID_00000130634180747399794320000000704905959588118949_);}
	.st17{fill:#608A00;}
	.st18{fill:#4B6C00;}
</style>
<g id="typography">
	<path class="st0" d="M216.5,125.9l-4.3,1.9l0.7,5.3l0.3,1.6c0.4,2.3,0.9,4.1,1.4,4.5c0.4,0.4,0.7,1.1,0.9,2
		c0.1,0.5,0.2,1.1,0.2,1.6c0,3.1,4.6,34.7,4.8,38c0.1,1.3,0.3,2.9,0.6,4.6c1.1,6.3,3.3,14.5,6.4,14c0.2,0,0.3-0.1,0.5-0.2
		c0.1,0,0.3-0.2,0.5-0.2c0.7-0.1,1.8,0,2.7,0.4c1,0.5,1.4,0.7,1.4,0.8c0,0.1-0.4,0.2-1,0.3c-0.5,0.1-0.8,0.2-0.8,0.5
		c0,0.2,0.5,0.7,1.7,1.3c1.6,0.9,2.9,1.3,3.9,1.2c1-0.2,1.7-0.9,1.9-2.2c0.4-2,4.7-6,5.1-7.8c0.1-0.1,0-0.4,0-0.7
		c-0.4-2.5-4.2-9.1-4.8-12.1c-0.1-0.8,0-1.4,0.5-1.5c1.7-0.3,4.2-7.1,3.7-10c-0.4-2.5-0.4-2.9,1.8-3.7c0.3-0.2,0.6-0.2,1-0.3
		c2.1-0.4,5,0.1,7.2-0.2c0.7-0.1,1.3-0.4,1.8-0.7c1.1-0.7,2.1-1.1,2.7-1.2c0.8-0.1,1.3,0.2,1.5,1.1c0.1,0.7,1.1,2.4,2,3.7
		c0.7,1,1.1,1.8,1.2,2.4c0.3,1.6-0.6,2.6-0.3,4.6c0.1,0.6,0.3,1.4,0.8,2.1c3.3,6.4,3.1,11.2,11.3,9.8c0.8-0.1,1.8-0.3,2.8-0.6
		c5.6-1.5,5.7-1.5,4.2-10.6l-0.2-0.9c-0.7-4-1.1-9.5-0.9-12c0.3-4.7,0.1-9-0.4-12.1c-0.3-1.7-0.7-3-1.2-3.8
		c-0.4-0.7-0.8-1.3-0.9-2.2c-0.2-1-0.1-2.1-0.1-3.8c0-1.6,0.1-2.7-0.1-3.6c-0.2-1.1-0.5-1.8-1.2-2.6c-0.7-0.9-1.1-2-1.3-2.9
		l-0.1-0.6c0-0.2,0-0.4,0-0.7c-0.4-2.1-3-5.1-3.3-6.7c-0.9-5.1-8-4.2-12.7-4.5c-0.2,0-0.3-0.1-0.5,0c-2.7,0.5-2.1,5.6-1.8,8.9
		c0.6,5-0.3,9.8,0.3,14.9l0.6,4l-3.1,0.3c-0.5,0.1-1,0.1-1.4,0.1c-3.5,0.6-3.4,1.8-9,2.8l-2.6,0.4c-2.8,0.5-3.2,0.3-4-1
		c-0.5-0.8-1.2-3.2-1.6-5.4l-0.2-1.1c-0.8-4.6-3.7-10.8-6.2-13.2c-0.9-0.8-1.7-2-1.8-2.5c-0.2-1.2-4.5-4.1-5.7-3.9
		C221.2,123.9,218.9,124.8,216.5,125.9z M314.1,147.1c1.6,1.2,2.3,2.2,2.5,2.9c0.4,2.1-3.6,2.9-6.1,3.8c-0.6,0.2-1,0.5-1.3,0.5
		c-0.3,0.1-0.7-0.1-0.8-0.6c-0.2-1.1,0-3.6,0.3-9l0.4-6.2l1.2,3.3C311.1,143.8,312.6,145.9,314.1,147.1z M302.7,111.9
		c-1.8,0.8-4.6,2.4-6.1,3.6c-2.6,2-3,2.8-4.4,9.9c-0.9,4.3-1.7,10.5-1.9,13.7c-0.4,6.6-2,9.8-1,16.3c1,6.6-0.4,15,0.5,22.3l0.9,6.5
		l3,0.9c2.2,0.6,3.8,0.9,5,0.7c1.8-0.3,2.8-1.7,3.9-4.4c1-2.2,2.1-5.8,2.1-7.9c0.2-3,0.3-3.5,1.6-3.8c0.3-0.1,0.9,0,1.4-0.1
		c1.5-0.1,5.2-0.6,8.4-1.1l5.7-0.9l1.3,2.3c0.8,1.3,1.4,2.8,1.6,3.4s2.4,4,5,7.7c4.7,6.6,4.8,6.7,8.6,7.2c2.8,0.4,5.1,0.4,6.9,0.1
		c2.6-0.4,4.1-1.9,3.6-4.8c-0.2-1.1-0.7-2.4-1.4-4c-0.2-0.5-0.4-1-0.5-1.5c-0.3-1.9,0.2-3.7,0-5.2c-0.1-0.8-0.6-1.6-1.6-2.3
		c-1.3-0.9-2.1-2-2.4-3.8c-0.2-1.1-0.2-2.4,0-4c0.1-0.7,0.1-1.3,0-1.8c-0.2-1.2-0.8-2.2-2.3-4.3c-3.4-4.4-3.2-9.9-6.3-14.3
		c-4.5-6.3-6.4-9.3-7.6-12.6c-0.7-1.8-2.1-4.2-3.1-4.9c-1-0.8-3.8-4-6.3-7.2c-4.7-6-6.6-7.9-9.8-7.4
		C306.1,110.4,304.6,111,302.7,111.9z M414.3,98.2c-0.6,1.5-1,3.6-1.1,4.9c-0.2,3.3-3,3.9-2.6,7.9c0.4,3.4-1.4,5.3-0.9,8.4
		c0.1,0.4,0.2,0.9,0.3,1.4c0.2,0.5,0.3,1,0.4,1.5c0.2,1.4,0,2.5-1,4.8l-1.7,3.6l-2.7-1.9c-2.9-2.1-5.9-5.7-6.1-7.4
		c-0.1-0.7-5.1-5.2-5.3-6.4c0-0.2,0.1-0.3,0-0.5c-0.1-0.7-1.6-1.2-3-1c-0.2,0-0.5,0.1-0.7,0.2l-0.2,0c-1.9,0.3-5.8-6.7-7.7-6.4
		l-0.1,0c-0.7,0.3-1.3,0.9-1.2,1.2c0.1,0.4-0.7,1.1-1.6,1.7c-1.5,0.9-1.6,1.9-1,5.7c0.7,4.2,2.5,5.1,2.9,7.3
		c0.2,0.9,0.1,2.3-0.6,4.2c-0.7,2.2-1.8,5-2.4,6.2c-1.6,2.9-1.8,17.5-4.6,17.9c-0.2,0-0.6-0.1-0.8-0.3c-0.2-0.2-0.5-0.2-0.6-0.2
		c-0.6,0.1,0.1,2.5-0.2,2.5c-0.1,0-0.4-0.4-1.3-1.6c-0.9-1.5-2.1-5.6-3.3-11.2c-1.8-8.5-4-14.6-7.5-20.8c-2.6-4.7-0.6-6.9-5.7-9.9
		c-0.7-0.4-3.4-0.4-6.4,0.1l-5,0.8l-0.3,2.6c-0.2,1.9,0.1,4.1,0.5,6.3l0.3,1.7c0.4,2.4,0.8,4.9,0.4,6.9c-0.3,1.8-0.5,2.8-0.4,3.6
		c0.2,1,0.6,1.7,1.7,3.2c1,1.5,1.6,2.4,1.8,3.4c0.1,0.4,0.2,0.9,0,1.4c-0.1,0.7-0.2,1.4-0.1,2.2c0.4,2.5,2.1,5.2,2.5,7.7
		c1.4,8.5,10.7,29.1,14.6,32.7c2.8,2.6,10.6,4.7,13.9,4.2c0.5-0.1,0.8-0.2,1.1-0.4c2.4-1.6,1.2-4.1,3.7-6.3c1.4-1.2,1.9-1.8,1.7-3
		c-0.1-0.3-0.1-0.8-0.3-1.2c-0.1-0.3-0.2-0.4-0.2-0.7c-0.3-2,0.6-4.1,2.2-4.4c0.9-0.2,2.9-8.1,2.5-10c-0.1-0.5-0.4-0.8-0.5-1.4
		c-0.4-2.4,0.1-6.9,1.4-9.9l1.6-3.6l3.2,3.6c3.6,3.9,6.1,7.8,9.6,10.9c1.1,1,2.2,2.6,2.3,3.5c0.5,2.7,4.8,5.5,8.6,5.5
		c0.5,0,1.2-0.1,1.8-0.2c4.9-0.8,10.5-4.3,10.1-6.2c-0.1-0.3-0.3-0.6-0.8-0.8c-0.1,0-0.1-0.2-0.2-0.4c-0.3-1.6,1.1-7.6,1.3-11
		c0.4-4.9,1-8.2,2-9.7c0.9-1.5,1.3-3.2,1-4.8c-0.2-1.4-0.2-2.9,0.2-3.4c0.9-1.2,1-13.1,1.6-14.6c0.4-1,0-2.9-0.3-5.2l-0.8-5
		c-0.2-1.4-0.4-2.6-0.4-3.4c0-0.7,0-1.2-0.1-1.8c-0.6-3.4-3-6.8-5.3-6.9c-1.1,0-3.3-0.2-4.7-0.4c-1.5-0.2-2.5-0.2-3.3-0.1
		C415.5,95.6,415.1,96.4,414.3,98.2z M467.7,121.1c1.6,1.2,2.3,2.2,2.5,3c0.4,2.1-3.6,2.9-6.1,3.8c-0.6,0.2-1,0.5-1.3,0.5
		c-0.3,0.1-0.7-0.1-0.8-0.6c-0.2-1.1,0-3.6,0.3-9l0.4-6.2l1.2,3.3C464.7,117.8,466.2,120,467.7,121.1z M456.4,85.9
		c-1.8,0.8-4.6,2.4-6.1,3.6c-2.6,2-3,2.8-4.4,9.9c-0.9,4.3-1.7,10.5-1.9,13.7c-0.4,6.6-2,9.8-1,16.3c1,6.6-0.4,15,0.5,22.3l0.9,6.5
		l3,0.9c2.2,0.6,3.8,0.9,5,0.7c1.8-0.3,2.8-1.7,3.9-4.4c1-2.2,2.1-5.8,2.1-7.9c0.2-3,0.3-3.5,1.6-3.8c0.3-0.1,0.9,0,1.4-0.1
		c1.5-0.1,5.2-0.6,8.4-1.1l5.7-0.9l1.3,2.3c0.8,1.3,1.4,2.8,1.6,3.4c0.1,0.6,2.4,4,5,7.7c4.7,6.6,4.8,6.7,8.6,7.2
		c2.8,0.4,5.1,0.4,6.9,0.1c2.6-0.4,4.1-1.9,3.6-4.8c-0.2-1.1-0.7-2.4-1.4-4c-0.2-0.5-0.4-1-0.5-1.5c-0.3-1.9,0.2-3.7,0-5.2
		c-0.1-0.8-0.6-1.6-1.6-2.3c-1.3-0.9-2.1-2-2.4-3.8c-0.2-1.1-0.2-2.4,0-4c0.1-0.7,0.1-1.3,0-1.8c-0.2-1.2-0.8-2.2-2.3-4.3
		c-3.4-4.4-3.2-9.9-6.3-14.3c-4.5-6.3-6.4-9.3-7.6-12.6c-0.7-1.8-2.1-4.2-3.1-4.9c-1-0.8-3.8-4-6.3-7.2c-4.7-6-6.6-7.9-9.8-7.4
		C459.7,84.5,458.3,85.1,456.4,85.9z M496.4,83c0.3,0.3,0.4,0.6,0.5,1c0.1,0.7-0.1,1.5-0.4,2.7c-0.4,1.3-0.5,1.9-0.4,2.9
		c0.1,0.7,0.5,1.7,1,2.9c0.5,1.2,0.9,2.1,1,2.8c0.1,0.6,0.1,1.1-0.2,1.4c-0.5,0.7-0.6,1.3-0.5,1.9c0.3,1.7,2.1,3.2,2.4,4.9
		c0.1,0.4,0.1,1-0.2,1.4c-0.4,0.9-0.4,2.6-0.1,4.5c0.6,3.5,2.3,7.9,4.4,11c1.4,2.1,2.2,4,2.5,5.6c0.3,1.8-0.2,3.2-1.4,3.7
		c-0.7,0.3-1.3,0.5-1.3,0.7c0.2,1.2,1.6,3.7,2,6.1c0.1,0.4,0,0.9,0,1.3c-0.1,0.3,0,0.8,0.1,1.1c0.3,2,1.9,3.9,2.2,5.7
		c0.1,0.6,0.1,1.3-0.2,2c-0.3,0.7-0.4,1.5-0.3,2.1c0.2,1.3,1.3,2.3,2.5,2.1c0.8-0.1,1,0.2,0.9,1.3c-0.1,1.2,0.3,1.6,2,1.7
		c2.5,0.1,5.7,1.9,8.3,1.4c0.7-0.1,1.3-0.4,1.9-1c0.8-0.8,1.3-1.7,1.2-2.4c-0.3-1.6,2.3-2.6,2-3.9c-0.1-0.3-0.2-0.7-0.8-1.2
		c-0.7-0.5-1.1-1-1.2-1.4c-0.1-0.5,0.2-1.1,0.9-2.4c0.7-1.4,0.9-2.1,0.8-3.1c-0.1-0.6-0.4-1.3-1-2.4c-0.5-1.1-0.7-1.8-0.9-2.5
		c-0.1-0.8,0.1-1.4,0.7-2.4c1-1.6,0.9-1.9-0.1-2.6c-0.8-0.5-1.4-1.7-1.6-3c-0.3-2,0.1-4.5,1.3-6.5c1.2-2,1.4-3.1,1.2-4.4
		c-0.1-0.5-0.3-1-0.5-1.8c-1.5-4.5-3.4-3.4-4-7.2c-0.1-0.8-0.1-1.9-0.1-3.4c0-2.1,0-3.3-0.2-4.2c-0.2-1.5-0.9-2.1-2.3-3.4
		c-1.3-1.2-2.6-3-2.7-4c-0.3-1.7-1.8-5-3.8-8.2c-2.2-3.6-0.9-4.4-7.5-4.4c-3,0-5.2,0-6.7,0.3c-1.5,0.2-2.1,0.8-2,1.6
		C495.6,81.6,495.9,82.2,496.4,83z M527,77.8c0.3,0.3,0.4,0.6,0.5,1c0.1,0.7-0.1,1.5-0.4,2.7c-0.4,1.3-0.5,1.9-0.4,2.9
		c0.1,0.7,0.5,1.7,1,2.9c0.5,1.2,0.9,2.1,1,2.8c0.1,0.6,0.1,1.1-0.2,1.4c-0.5,0.7-0.6,1.3-0.5,1.9c0.3,1.7,2.1,3.2,2.3,4.9
		c0.1,0.4,0.1,1-0.2,1.4c-0.4,0.9-0.4,2.6-0.1,4.5c0.6,3.5,2.3,7.9,4.4,11c1.4,2.1,2.2,4,2.5,5.6c0.3,1.8-0.2,3.2-1.4,3.7
		c-0.7,0.3-1.3,0.5-1.3,0.7c0.2,1.2,1.6,3.7,2,6.1c0.1,0.4,0,0.9,0,1.3c-0.1,0.3,0,0.8,0.1,1.1c0.3,2,1.9,3.9,2.2,5.7
		c0.1,0.6,0.1,1.3-0.2,2c-0.3,0.7-0.4,1.5-0.3,2.1c0.2,1.3,1.3,2.3,2.5,2.1c0.8-0.1,1,0.2,0.9,1.3c-0.1,1.2,0.3,1.6,2,1.7
		c2.5,0.1,5.7,1.9,8.3,1.4c0.7-0.1,1.3-0.4,1.9-1c0.8-0.8,1.3-1.7,1.2-2.4c-0.3-1.6,2.3-2.6,2-3.9c-0.1-0.3-0.2-0.7-0.8-1.2
		c-0.7-0.5-1.1-1-1.2-1.4c-0.1-0.5,0.2-1.1,0.9-2.4c0.7-1.4,0.9-2.1,0.8-3.1c-0.1-0.6-0.4-1.3-1-2.4c-0.5-1.1-0.7-1.8-0.8-2.5
		c-0.1-0.8,0.1-1.4,0.7-2.4c1-1.6,0.9-1.9-0.1-2.6c-0.8-0.5-1.4-1.7-1.6-3c-0.3-2,0.1-4.5,1.3-6.5c1.2-2,1.4-3.1,1.2-4.4
		c-0.1-0.5-0.3-1-0.5-1.8c-1.5-4.5-3.4-3.4-4-7.2c-0.1-0.8-0.1-1.9-0.1-3.4c0-2.1,0-3.3-0.2-4.2c-0.2-1.5-0.9-2.1-2.3-3.4
		c-1.3-1.2-2.6-3-2.7-4c-0.3-1.7-1.8-5-3.8-8.2c-2.2-3.6-0.9-4.4-7.5-4.4c-3,0-5.2,0-6.7,0.3c-1.5,0.2-2.1,0.8-2,1.6
		C526.2,76.4,526.5,77,527,77.8z M588.2,100.8c1.6,1.2,2.3,2.2,2.5,3c0.4,2.1-3.6,2.9-6.1,3.8c-0.6,0.2-1,0.5-1.3,0.5
		c-0.3,0.1-0.7-0.1-0.8-0.6c-0.2-1.1,0-3.6,0.3-9l0.4-6.2l1.2,3.3C585.2,97.5,586.7,99.6,588.2,100.8z M576.8,65.6
		c-1.8,0.8-4.6,2.4-6.1,3.6c-2.6,2-3,2.8-4.4,9.9c-0.9,4.3-1.7,10.5-1.9,13.7c-0.4,6.6-2,9.8-1,16.3c1,6.6-0.4,15,0.5,22.3l0.9,6.5
		l3,0.9c2.2,0.6,3.8,0.9,5,0.7c1.8-0.3,2.8-1.7,3.9-4.4c1-2.2,2.1-5.8,2.1-7.9c0.2-3,0.3-3.5,1.6-3.8c0.3-0.1,0.9,0,1.4-0.1
		c1.5-0.1,5.2-0.6,8.4-1.1l5.7-0.9l1.3,2.3c0.8,1.3,1.4,2.8,1.6,3.4c0.1,0.6,2.4,4,5,7.7c4.7,6.6,4.8,6.7,8.6,7.2
		c2.8,0.4,5.1,0.4,6.9,0.1c2.6-0.4,4.1-1.9,3.6-4.8c-0.2-1.1-0.7-2.4-1.4-4c-0.2-0.5-0.4-1-0.5-1.5c-0.3-1.9,0.2-3.7,0-5.2
		c-0.1-0.8-0.6-1.6-1.6-2.3c-1.3-0.9-2.1-2-2.4-3.8c-0.2-1.1-0.2-2.4,0-4c0.1-0.7,0.1-1.3,0-1.8c-0.2-1.2-0.8-2.2-2.3-4.3
		c-3.4-4.4-3.2-9.9-6.3-14.3c-4.5-6.3-6.4-9.3-7.6-12.6c-0.7-1.8-2.1-4.2-3.1-4.9c-1-0.8-3.8-4-6.3-7.2c-4.7-6-6.6-7.9-9.8-7.4
		C580.2,64.2,578.8,64.7,576.8,65.6z M658,74.7c-0.2-1.3-16.1-12.9-16.3-14c-0.2-1.2-2.7-2-4.8-1.7c-1.1,0.2-1.7-0.3-1.8-1.2
		c-0.2-1.1-0.7-1.5-2.1-1.3c-2.3,0.4-7.8-3.3-10.5-2.9c-1.1,0.2-1.7,1-1.3,3.3c0.1,0.5,0.2,1.2,0.4,1.8c0.3,1,0.5,1.7,0.6,2.2
		c0.2,1.3-0.3,1.5-2,1.9c-1.8,0.5-2.2,1-2.1,2.2c0.4,3.8,0.2,9.2-0.4,11.6c-0.3,1.2-0.5,2.4-0.2,3.7c0.2,1.1,0.6,2.2,1.1,3.9
		c0.5,1.5,0.8,2.8,1,3.9c0.5,3,0,4.5,0.6,7.8c0.1,0.7,0.4,1.6,0.7,2.6c1.3,5.2,2.3,13,4.9,15.8c0.8,0.8,1,1.7,1.2,2.4
		c0.2,1.4-0.1,2.7,0.2,4.2c0.1,0.7,0.4,1.5,0.9,2.3c0.6,1,0.8,1.6,0.9,2.1c0.1,0.7-0.1,1.1-0.1,1.5c0.1,0.4,0.6,0.9,1.8,1.9
		c2,1.4,3.1,1.8,5.5,1.3c1.7-0.3,4.3-0.3,5.6-0.1c0.6,0.1,1.1,0,1.5,0c2.4-0.4,3.2-3,2.7-5.8l-0.1-0.8l-0.2-1.2
		c-0.6-3.4,1-4.4,0.3-8.7c-0.4-2.1-0.4-5.4,0-7.3c0.4-2.1,0.4-3.8,0.2-5.2c-0.3-1.7-1-3.2-2.4-5.2c-1.3-1.8-2.8-5-3.3-7.6l-1-4.5
		l4,3c2.7,1.9,4.1,3.8,4.4,5.3c0.1,0.7,0,1.4-0.4,2c-0.5,0.7,0,1.2,1.9,2c4.1,1.6,5.6,8.3,9,10.2c0.7,0.4,1.5,1.9,1.7,3.3
		c0.3,1.6,2.3,4.6,5.3,8.3c2.7,3.2,4.8,6.1,4.9,6.4c0.1,0.3,1.5,1.2,3.2,1.8c1.7,0.7,2.6,1,3.8,0.8c0.8-0.1,1.8-0.4,3.1-1
		c0.7-0.2,1.4-0.5,2.2-0.6c1.5-0.2,3.2-0.3,4.5-0.5c1.9-0.3,3.2-1.1,2.8-3.1c-0.1-0.5,0.3-1.6,0.9-2.5c0.9-1.3,0.9-3.1,0.1-7.5
		c-1-6.1-0.8-13.3,0.2-15.2c0.2-0.5,0.3-0.9,0.2-1.5c-0.1-0.6-0.3-1.4-0.8-2.3c-1.1-2.3-3.2-8.5-3.5-10.5c-0.2-1.4-0.2-4.1-0.6-6.5
		c-0.2-1.5-0.7-2.7-1.3-3c-0.8-0.5-1.4-1.1-1.5-1.7c-0.1-0.6,0.1-1.3,0.7-2.1c0.4-0.4,0.2-2-0.1-4c-0.6-3.4-1.7-7.7-2.5-8.3
		c-0.5-0.4-0.9-1.5-1.1-2.5c-0.2-1.2-0.1-2.3,0.3-2.7c0.4-0.3,0.4-0.7,0.3-1.1c-0.2-1.1-1.6-2.2-2.9-2c-1.1,0.2-3.5-0.6-5.4-1.8
		c-2.3-1.5-3.1-1.9-4-1.7c-0.5,0.1-0.9,0.4-1.7,0.8c-0.9,0.6-1.6,2-1.7,3.4c-0.1,2.2,0.1,5.1,0.5,7.3c0.3,1.6,0.6,2.7,0.9,2.9
		c0.2,0.1,0.4,0.5,0.5,0.9c0.2,1.4-0.2,3.7-1.2,4.6c-0.7,0.8-0.9,1.8-0.1,6.6c0.2,1.4,0.6,3,1,5.2l2,10.6l-2.2-1.9
		c-1.1-1-2.3-2.3-2.4-2.7C664.4,81.1,658.2,76.2,658,74.7z"/>
	<path class="st0" d="M246.3,233.7l-0.1,0c-4.4,0.7-9.6,2.9-10.3,4.4c-0.4,0.7-1.1,1.5-1.5,1.6c-1.5,0.2-2.5,2.2-2.2,3.9
		c0.1,0.3,0.1,0.5,0.2,0.8c1.9,4.3,8.5,9,11.2,8.5c0.4-0.1,0.8-0.4,1.1-0.7c0.4-0.7,2.9-1.4,7.1-2.1l6.5-1.1l1.4,7.8l0.3,1.6
		c0.9,5.3,1.9,12.2,3,18.7c1.3,7.7,2.6,15,3.9,18.6c2.1,6,0.4,7.4,7.4,8.6c2.6,0.4,5.9,0.5,7.6,0.2l0.4-0.1l2.9-0.7l-0.5-3.5
		c-0.3-2.7,0.6-4.1,0.4-5.6c-0.1-0.5-0.4-1-1-1.7c-0.7-0.6-1-1.2-1.1-2c-0.1-0.5-0.1-1.1,0.1-2c0.3-1.7,0-5.4-0.7-9.2
		c-0.7-4.4-1.8-8.8-2.7-9.6c-0.5-0.6-1.1-2.8-1.6-5.7c-0.6-3.8-1.1-8.4-0.6-9.9c0.1-0.2,0-0.5,0-0.9c-0.3-1.9-2.6-5-2.7-5.7
		c0,0,9-3.9,9.4-4.2c1.1-0.8,2.4-1.4,2.7-1.2c0.2,0.1,0.6,0.1,1,0.1c2-0.3,5.4-2.7,7.1-3.4c2.5-1.1,3.4-1.8,3.2-2.8
		c-0.2-1.1-1.3-2.4-2.6-4.9c-2.1-3.9-2.9-4.2-4-4l-1.1,0.2c-0.8,0.1-1.9,0.2-3.4-0.3c-3-1-25.2,3-29.2,3.3c-0.6,0.1-1.4,0.1-1.9,0.2
		c-4.1,0.7-5.9,2.1-9.7,2.7L246.3,233.7z M331.2,232.7c2.9,0.9,7.4,1,11.9,0.4c2.2-0.4,4.1-0.2,5.2,0.5c1,0.6,2.3,1,3.3,0.9
		c1-0.2,1.8,0,2.3,0.5c0.1,0.2,0.1,0.2,0.2,0.3c0,0.1-0.1,0.2-0.2,0.2c-0.4,0.1-1.6-0.4-1.9-0.3c-0.1,0,0,0.1,0,0.1
		c0,0.1,0.3,0.4,1,0.9c0.5,0.4,0.9,0.7,1,1.1c0.1,0.6-0.5,1.7-1.7,4c-3.2,5.7-5.5,4.2-9.9,8.9c-2.2,2.3-2.9,3-4.7,3.3
		c-0.6,0.1-1.3,0.2-2.2,0.3c-2.1,0.1-5.1,0.4-6.6,0.7l-2.6,0.4l-0.9-5.5c-0.5-3-1.5-7.8-2.2-10.6l-1.2-5.2l3.6-0.8l0.8-0.1
		C328,232.3,330.1,232.3,331.2,232.7z M328.2,216.8c-0.4,0.6-1.6,1-2.9,1.3c-1.1,0.2-2.1,0.3-3.3,0.1l-0.4,0.1
		c-2.4,0.4-9,5.3-9.5,6.7c-0.2,0.4-1.8,1.1-3.5,1.3c-1.7,0.3-3.6,0.8-3.9,1.2c-1.2,1.1-1.1,5.5,0.2,14.4c0.7,4.6,1.3,9.3,1.2,10.8
		c-0.1,0.3,0,0.7,0.1,1c0.4,2.6,3.1,4.1,3.5,6.4c0.1,0.8,0,1.8-0.8,3c-0.7,1-0.9,1.6-0.7,2.7c0.1,0.8,0.5,2.2,1.3,4.2
		c0.8,2,1.3,4.1,1.7,6.2c0.5,2.8,0.5,5.8,0.3,8.1c-0.2,1.2,0.1,1.6,0.7,1.4c0.1,0,0.2-0.1,0.3-0.2c1.1-0.2,1.8,1.4,2,3.1
		c0.2,1.1,0.2,2.3,0,2.9c-0.3,0.7-0.3,1.2-0.2,1.8c0.3,1.6,1.8,2.3,2,3.7c0,0.2,0.1,0.5,0,0.8c-0.1,0.2,0,0.4,0,0.7
		c0.3,1.6,3.5,2.1,12.3,2.1c0.4,0,0.9,0,1.3-0.1c2.3-0.4,3.1-1.9,2.8-5.4l-0.1-0.7c-0.2-1.5-0.7-2.3-1.6-2.7
		c-0.9-0.4-1.6-0.9-1.7-1.5c-0.1-0.6,0.4-1.1,1.4-1.9c1.6-1,1.6-5.6,0.9-9.3c-0.2-1.3-0.5-2.4-0.8-3.3c-0.2-0.6-0.3-1.1-0.4-1.6
		c-0.2-1.2,0.1-1.5,0.6-1.6c1.3-0.2,4,1.5,5.8,1.2c0.4-0.1,0.9-0.3,1.2-0.6c0.4-0.6,0.8-1,1.3-1.1c0.8-0.1,1.7,0.5,2.5,1.9
		c1.7,3.1,3.8,2.4,5.5,5.7c1.9,3.5,6,7.9,9.8,10.2c1.6,1,3.1,2.1,3.1,2.5c0.1,0.5,3.5,0.3,6.8-0.3c2-0.3,3.9-0.8,4.9-1.3
		c0.8-0.4,1.8-1.8,2.1-3.3c0.2-0.9,0.2-1.7,0.1-2.2c-0.2-0.9-0.8-1.8-2.4-3.5c-1.6-1.7-3-3.4-3.1-4c-0.1-0.6-0.9-1.9-1.8-2.7
		c-2.1-2-6.4-7.9-9.5-8.5l-2.4-0.3l6-5c5.9-4.9,5.9-4.9,8-11.8c2.2-7.3,1.3-7.4,2-13.6c0.1-0.7,0-1.4-0.1-2c-0.5-3-2.6-5.4-3.4-7.7
		c-0.7-2.2-16.4-9.2-19.4-8.7c-1.3,0.2-4.4-0.2-6.9-1.1c-2.6-0.9-4-1.2-5.2-1c-0.5,0.1-1.1,0.2-1.5,0.5c-0.4,0.2-0.7,0.3-1.1,0.4
		c-1.4,0.2-2.6-0.2-3.6,0C329,216.1,328.6,216.3,328.2,216.8z M417.3,229.5c0.7,0.6,1.9,1.2,2.7,1.1c1.7-0.3,4.4,2.8,4.9,5.7
		c0.2,1.1,0.8,2.6,1.3,3.4c0.1,0.2,0.3,0.4,0.3,0.7c0.4,2.5-1.9,8.7-1.6,10.6c0.2,1.1,0,1.8-0.4,1.9c-0.4,0.1-3.1,3.1-5.8,6.8
		c-3.5,4.7-4.2,6-6,6.3c-1,0.2-2.4,0.1-4.7,0c-5.3-0.1-9.1-8.2-10.1-14l-0.1-0.7c-0.5-3.4-2.3-17-1.2-18.6c0.6-0.9,1-1.9,0.9-2.3
		c-0.1-0.5,1.1-0.7,3-0.7c0.9,0,1.5,0,1.9-0.1c1.1-0.2,1.3-0.7,1.6-2c0.2-1.1,0.7-2.1,0.8-2.1C406.3,225.2,416.5,228.8,417.3,229.5z
		 M389.5,213c-0.5,0.7-1.6,1.5-2.3,1.6c-3.2,0.5-10.4,15.4-9.7,19.9c0.1,0.6-0.2,2.4-0.6,3.9c-1.1,4.2,1.1,7.3-0.1,11.6l-1,3.3
		l2.8,4c1.6,2.1,2.2,3.3,2.3,4.3c0.1,0.5-0.1,1-0.2,1.5c-0.1,0.5-0.2,1-0.1,1.5c0.7,4.2,8.3,8.1,8.3,8.1c1.1-0.2,2.1,1.3,2.4,3.5
		c0.3,1.9,3.6,4.2,9.4,6.2c4.1,1.5,5.3,1.6,11.6,0.7l2.2-0.4c5.5-0.9,4.8-1.8,9.2-3.3c1.7-0.6,3.8-2.2,5.1-3.9
		c3.7-4.9,13.8-14.1,14-19.1c0.2-4-0.4-9.9,0.5-13.9c0.3-1.8,0.4-3.6,0-5.5c-0.8-4.6-3.3-9.4-5.8-12.1c-2-2.2-2.8-3.9-2.9-4.6
		c-0.3-1.7-9.2-7-13.9-8.3c-4.8-1.3-8,0.9-11.7-1.2c-1.6-0.8-3-0.7-4.6-0.4l-1.2,0.2c-1.5,0.2-3,0.3-4.5-0.4
		c-1.3-0.6-2.6-1.1-2.7-1.1C394.8,209.9,390.4,211.7,389.5,213z M486.2,223.2c-1.4,0.2-2.3,1-2.9,2.2c-0.9,2.1-9,5.3-11.1,6.7
		c-0.2,0.1-0.4,0.2-0.5,0.2c-0.2,0-0.3-0.1-0.4-0.4c-0.1-0.4,0-1.3,0.2-2.9c0.1-1.4,0.1-2.4,0-3c-0.1-0.7-0.5-1.2-1-1.6
		c-1.1-0.8-1.3-1.3-2.9-9.4l-0.2-1.2c-0.4-2.6-0.3-3.7,0.4-4.1c0.7-0.3,2.3-0.7,4.2-1c4.9-0.8,11.9-1.4,12.7-0.8
		c0.6,0.4,1.9,0.5,2.9,0.4c1.8-0.3,1.7-0.3,0-1.6c-1.6-1.4-1.6-1.4,0.3-1.1c1.1,0.1,2.5,0.7,3.2,1.2c0.6,0.3,0.7,0.5,0.8,0.6
		c0,0.1,0,0.1-0.1,0.1c-0.4,0.1-1.7-0.4-2-0.3l0,0.1c0,0.1,0.3,0.4,1,0.8c1.4,0.8,2.4,2.5,2.7,4.4c0.5,3.1-0.4,6.5-3.4,7
		C487.7,219.9,489.2,222.7,486.2,223.2z M455.6,193.8c-0.9,1-3.7,2.7-6.2,3.8c-5.1,2.3-7.8,5.3-7.3,8.1c0.1,0.4,0.2,0.8,0.4,1.2
		c1.2,2.2,4.7,4.6,5.2,7.4c0.4,2.3,1.9,4.1,2.2,6.2c0.1,0.8,0.1,1.7-0.2,2.7c-0.3,1.2-0.4,2.1-0.2,3.1c0.3,2,1.6,3.6,2.1,6.8
		c0.6,3.8,3,8.1,3.6,11.9c0.3,1.9,0.2,3.7-0.7,5.2c-0.8,1.2-0.9,2.1-0.7,3.8c0.1,0.8,0.4,1.8,0.7,3.1c1.6,5.9,2.4,9,4.1,14.3
		c1.2,3.5,1.3,3.6,4.4,3.7c1.7,0,3.4,0.4,3.5,0.7c0.1,0.8,3.6,1.5,6,1c1.4-0.2,2.5-0.7,2.3-1.8c-0.1-0.5,0.2-3.3,0.6-6.3
		c0.4-2.7,0.5-4.2,0.3-5.4c-0.1-0.7-0.3-1.2-0.7-1.8c-0.4-0.6-0.6-1.1-0.7-1.6c-0.1-0.7,0-1.4,0.4-2.7c0.5-1.5,0.6-4.3,0.2-6.5
		c-0.6-3.6-0.6-3.9,1.1-4.2l0.5-0.1l0.8-0.1c6.4-1.1,13.4-3.5,16.3-5.6c1.7-1.3,3.9-2.5,4.8-2.6c2.4-0.4,5.7-4.2,6.1-7.3
		c0.3-1.6,2-5,3.8-7.4l3.2-4.3l-1-5.8c-1.8-10.4-5.6-15.8-14.2-20c-6.4-3-12.1-4.1-17.4-3.3c-0.8,0.1-1.6,0.4-2.4,0.6
		c-0.7,0.2-1.4,0.3-2.1,0.5c-1.8,0.3-3.5,0.4-5,0.1c-1.2-0.2-2.1-0.2-3,0c-1.2,0.2-2.3,0.6-3.4,0.8c-0.7,0.1-1.6,0.2-2.6,0
		c-1.2-0.1-2-0.2-2.5-0.1C457.2,192,456.7,192.5,455.6,193.8z M515.5,193.1c0.3,0.3,0.4,0.6,0.5,1c0.1,0.7-0.1,1.5-0.4,2.7
		c-0.4,1.3-0.5,1.9-0.4,2.9c0.1,0.7,0.5,1.7,1,2.9c0.5,1.2,0.9,2.1,1,2.8s0.1,1.1-0.2,1.4c-0.5,0.7-0.6,1.3-0.5,1.9
		c0.3,1.7,2.1,3.2,2.4,4.9c0.1,0.4,0.1,1-0.2,1.4c-0.4,0.9-0.4,2.6-0.1,4.5c0.6,3.5,2.3,7.9,4.4,11c1.4,2.1,2.2,4,2.5,5.6
		c0.3,1.8-0.2,3.2-1.4,3.7c-0.7,0.3-1.3,0.5-1.3,0.7c0.2,1.2,1.6,3.7,2,6.1c0.1,0.4,0,0.9,0,1.3c-0.1,0.3,0,0.8,0.1,1.1
		c0.3,2,1.9,3.9,2.2,5.7c0.1,0.6,0.1,1.3-0.2,2c-0.3,0.7-0.4,1.5-0.3,2.1c0.2,1.3,1.3,2.3,2.5,2.1c0.8-0.1,1,0.2,0.9,1.3
		c-0.1,1.2,0.3,1.6,2,1.7c2.5,0.1,5.7,1.9,8.3,1.4c0.7-0.1,1.3-0.4,1.9-1c0.8-0.8,1.3-1.7,1.2-2.4c-0.3-1.6,2.3-2.6,2-3.9
		c-0.1-0.3-0.2-0.7-0.8-1.2c-0.7-0.5-1.1-1-1.2-1.4c-0.1-0.5,0.2-1.1,0.9-2.4c0.7-1.4,0.9-2.1,0.8-3.1c-0.1-0.6-0.4-1.3-1-2.4
		c-0.5-1.1-0.7-1.8-0.8-2.5c-0.1-0.8,0.1-1.4,0.7-2.4c1-1.6,0.9-1.9-0.1-2.6c-0.8-0.5-1.4-1.7-1.6-3c-0.3-2,0.1-4.5,1.3-6.5
		c1.2-2,1.4-3.1,1.2-4.4c-0.1-0.5-0.3-1-0.5-1.8c-1.5-4.5-3.4-3.4-4-7.2c-0.1-0.8-0.1-1.9-0.1-3.4c0-2.1,0-3.3-0.2-4.2
		c-0.2-1.5-0.9-2.1-2.3-3.4c-1.3-1.2-2.6-3-2.7-4c-0.3-1.7-1.8-5-3.8-8.2c-2.2-3.6-0.9-4.4-7.5-4.4c-3,0-5.2,0-6.7,0.3
		c-1.5,0.2-2.1,0.8-2,1.6C514.8,191.7,515,192.3,515.5,193.1z M564,180.3c-2.2,1.8-4.6,4.1-5.5,5.3c-3.2,4.1-10.4,17.3-10.2,18.5
		c0.1,0.7-0.3,2.7-0.9,4.5c-1.4,4.1,1.6,11.6,0.9,16.4c-0.3,1.7-0.4,2.7-0.2,3.7c0.2,1.3,0.9,2.6,2,5c6.1,12.1,13.6,19.2,23.4,22.3
		c3.8,1.2,4.7,1.5,9.9,0.6c1.5-0.2,3.3-0.7,5.6-1l10.5-2l4.8-4.5c5.3-5,5.9-6.2,5.2-10.3c-0.4-2.2-1-3.4-3.1-4.8
		c-2.1-1.4-2.8-1.6-6-1l-2.6,0.4c-4.6,0.9-6.6,1.8-9.2,3.7c-2.1,1.6-3.6,2.5-4.9,2.7c-1.1,0.2-2-0.1-3.1-0.7
		c-0.9-0.4-1.8-0.6-2.7-0.4c-0.3,0.1-0.6,0.1-0.9,0.3c-0.2,0.1-0.5,0.2-0.7,0.2c-1.9,0.3-4.1-1.5-7.1-5.5c-1.4-1.9-2.1-3-2.5-5.3
		c-0.2-0.9-0.3-2.1-0.4-3.7c-0.6-6.7,1.2-8.1,0.3-13.7c-0.5-3-0.4-3.4,1.4-4.6c1.1-0.7,2.3-2.4,2.6-3.7c0.7-3.3,3.6-5.4,4.9-8.5
		c0.6-1.5,1-2.2,2.2-2.4c0.8-0.1,2,0,3.7,0.3c0.9,0.2,0.4-0.2-1.1-0.8c-1.6-0.7-2.8-1.6-2.9-2.1c0-0.2,0.2-0.4,0.4-0.4
		c0.2,0,0.4,0,0.8,0.1c0.7,0.1,1.3,0.4,1.3,0.8c0.1,0.3,2.3,1.7,5.1,2.9c3.6,1.7,5.5,2.2,8,1.8c1.1-0.2,2.3-0.6,3.8-1.1
		c2-0.7,2.5-1,2.4-2c-0.1-0.4-0.2-0.8-0.5-1.5c-1-3-2.3-2.9-2.8-5.5c-0.8-5-16.8-7.7-23.9-7.4c-0.9,0-1.5,0-2.1,0.1
		C567.8,177.3,566.5,178.2,564,180.3z"/>
</g>
<path id="splash_bg" class="st1" d="M110.7,189.1c-0.3,1.6-0.7,3.1-1.8,4.3l0,0c-1.5,1.7-3.2,2-5.7,0.3c-2.8-1.8-4.7-4.8-5.2-8.1
	c-1.8-11.3,6.3-20.7,15.1-27.2c14.7-10.9,32.8-17.1,51.1-17.6c4.2-0.1,8.5,0.1,12.6-0.9c4.9-1.2,9.6-4.4,10.5-9.7
	c0.5-2.8-0.6-5.8-2.9-7.4c-3.5-2.4-7.6-0.9-10.9,1.2c-2.8,1.8-5.4,4-8.7,4.6c-3.7,0.7-7.2-2.2-7.3-6c-0.4-12.8,8.5-25.7,20.9-29.2
	c8.5-2.4,17.8-0.8,26.3-3.2c4.8-1.4,9.4-5,11.7-9.4c2.5-4.7-1.6-10.2-6.8-9.3c-8.9,1.5-17.7,3.9-26.1,7.3c-5.8,2.3-11.3-4.1-7.9-9.4
	l0.1-0.1c2.8-4.2,6.4-8,8-12.7c1.9-5.6-0.1-13.4-7.1-13.5c-3.3-0.1-6.2,1.9-8,4.7c-4.2,6.7-2.3,14.6-4,21.8
	c-1.8,7.6-10.3,15.2-17.9,5.7c-1.7-2.1-2.4-4.7-2.7-7.3c-0.5-6.2-6.6-15.7-13.1-12.1c-2.6,1.4-3.7,4.4-3.4,7.3
	c0.8,6.6,6.3,10.4,9.1,15.8c5.8,10.9-1.5,25.2-12.5,30.8c-11,5.6-24.2,4.4-36.2,1.4c-7-1.7-14.9-4-20.7,2.1
	c-3.4,3.6-2.8,8.7,1.8,10.8c6.7,3,12-7.7,19.3-4.4c3.3,1.5,5.1,5.1,4.9,8.8c-0.3,6.5-5,11.2-9.2,15.8
	c-15.6,17.2-26.8,38.8-29.3,61.9c-2.7,25,5.6,51.5,24.5,68.2c3.1,2.8,5.7,6.3,7.1,10.2c5.3,14-8.4,15.8-10.8,25
	c-0.5,1.8-0.3,3.8,0.7,5.4c3.1,4.8,10.1,2.4,14-1.3c4.2-3.9,8-9.3,14.3-8.5c3.7,0.5,6.7,3.1,8.3,6.5c3.6,7.7,1.2,15.8,1.8,23.7
	c0.9,10.6,8,20.4,17.7,24.6c10.1,4.4,22.7,2.6,31.1-4.5c5.9-5,14.3-6.3,21.2-2.8c7.5,3.8,12.5,11.1,17.1,18.1
	c4.7,7.1,9.6,14.5,17.1,18.5c4.4,2.4,9.9,3.4,14.3,0.7c3.1-1.9,4.9-5.7,3.9-9.2c-2.6-8.8-19.1-6.3-20.3-17.9
	c-0.4-3.6,1.1-7.1,3.6-9.6c5.8-5.9,14.1-6.6,21.8-8.3c4.5-15.5-0.8-36.2-4.5-45.6c-1.8-0.1-3.5-0.7-5-1.6c-8-4.9-9.5-15.2-17.4-20.1
	c-2.6-1.6-5.8-2.1-8.7-1.1c-4.7,1.6-4.9,5.5-6,9c-4,12.9-19.8,19.3-33.1,16.5c-13.2-2.8-24-12.4-32.6-22.8
	c-12.3-14.8-22.1-34.7-15.7-52.9c1.9-5.3,5-10.1,7.7-15.1c2.6-5,4.8-10.5,4.4-16.1c-0.4-5.6-3.9-11.4-9.3-12.8
	C117.2,180.9,111.5,184.4,110.7,189.1z"/>
<path class="st1" d="M205.5,262.8c-4.8,0.3-9-3.3-9.4-8.2c-0.3-4.9,3.3-9,8.2-9.4c4.8-0.3,9,3.3,9.4,8.2
	C214,258.2,210.3,262.4,205.5,262.8z"/>
<path class="st1" d="M62.8,336.5c-4.8,0.3-9-3.3-9.4-8.2c-0.3-4.9,3.3-9,8.2-9.4c4.8-0.3,9,3.3,9.4,8.2
	C71.3,332,67.6,336.1,62.8,336.5z"/>
<path class="st1" d="M139,178.6c-4.8,0.3-9-3.3-9.4-8.2c-0.3-4.9,3.3-9,8.2-9.4c4.9-0.3,9,3.3,9.4,8.2
	C147.5,174.1,143.8,178.2,139,178.6z"/>
<path class="st1" d="M52,145.4c5.9-0.4,10.4-5.5,10-11.4c-0.4-5.9-5.5-10.4-11.4-10c-5.9,0.4-10.4,5.5-10,11.4
	C41,141.3,46.1,145.8,52,145.4z"/>
<path class="st1" d="M127.1,48c-1.9-1.6-2-4.5-0.4-6.3c1.6-1.9,4.5-2,6.3-0.4c1.9,1.6,2,4.5,0.4,6.3C131.8,49.5,129,49.7,127.1,48z"
	/>
<path class="st1" d="M167.4,169.8c-1.3,2.4-1.3,5.2-2.3,7.7c-1.5,3.9-5.2,6.8-9.4,7.2c0.3,2.1,2.8,2.9,4.9,3.1
	c4.2,0.4,8.6,0.2,12.5-1.4c3.9-1.6,7.4-4.7,8.7-8.7C185.2,168,172.8,159.9,167.4,169.8L167.4,169.8z"/>
<path class="st2" d="M115.8,188c2.5-2.1,6.6-1.7,9,0.6c2.4,2.3,3.2,5.8,2.9,9.1c-0.4,3.3-1.8,6.3-3.4,9.2c-1.6,2.9-3.3,5.7-4.5,8.8
	c-0.7,0.5-1.8-0.5-2.2-1.2c-0.4-0.7-0.4-1.6-0.2-2.4c0.7-4.5,3.7-8.3,4.4-12.8c0.3-1.8,0.1-3.8-1.2-5c-0.8-0.8-1.8-1.1-2.8-1.5
	c-1-0.4-2-0.9-2.7-1.7C114.5,190.1,115,188.7,115.8,188L115.8,188z"/>
<path class="st2" d="M158,304c7.8,4.2,16.9,6.6,25.6,5c8.7-1.6,16.9-7.6,19.4-16.1c0.7-2.4,1.4-5.3,3.8-5.9c2.1-0.5,4.1,1.7,4.3,3.8
	c0.2,2.2-0.9,4.2-2.2,6.1c-8.1,12.1-22.6,19.7-37.2,19.4c-14.6-0.3-28.8-8.4-36.4-20.9c-1.1-1.7-2.7-5.8,0.4-6.7
	c2.2-0.7,5.3,3.3,6.9,4.5C147.4,297.2,152.4,301,158,304z"/>
<path class="st2" d="M128.9,286.3c-2.2,0.1-4.1-1.5-4.2-3.7c-0.1-2.2,1.5-4.1,3.7-4.2s4.1,1.5,4.2,3.7
	C132.7,284.3,131.1,286.2,128.9,286.3z"/>
<path class="st2" d="M119.6,144.2c-0.7,0.5-1.5,1.1-1.4,2c0.1,1,1.3,1.6,2.3,1.7c6.3,0.7,11.5-5.1,17.8-5.7c1.6-0.2,3.2,0,4.8-0.1
	c1.6-0.1,7.2-1.4,5.7-4.1c-1-1.9-7.4-0.9-9.1-0.8C132.5,137.8,125.5,140.2,119.6,144.2L119.6,144.2z"/>
<path class="st2" d="M111.7,155.4c1.9,0.3,3.6-0.9,4-2.8s-0.9-3.6-2.8-4c-1.9-0.3-3.6,0.9-4,2.8C108.6,153.3,109.9,155,111.7,155.4z
	"/>
<path class="st2" d="M207.9,83c-1.9,1.8-4.5,2.5-7,3.2c-0.6,0.2-1.3,0.3-1.8,0.1c-1-0.5-1-1.9-0.3-2.7c0.7-0.8,1.8-1.1,2.8-1.4
	c1-0.3,2.1-0.6,2.8-1.4c0.7-0.7,0.8-1.8,1-2.7C206.8,72.1,213.1,78.3,207.9,83z"/>
<path class="st3" d="M236.9,385.7c-6,1.5-12.9-0.1-18.2-3.5c-7.3-4.6-12.5-11.9-18.2-18.5c-5.6-6.6-11.1-15.7-19.7-14.2
	c-2,0.4-4,0.7-6.1,1c3.4-0.3,6.9,0.2,10.1,1.9c7.5,3.8,12.5,11.1,17.1,18.1c4.7,7.1,9.6,14.5,17.1,18.5c4.4,2.4,9.9,3.4,14.3,0.7
	C235,388.7,236.3,387.3,236.9,385.7L236.9,385.7z"/>
<g>
	<path class="st3" d="M90.4,313.6c-2.9-2-3.8-7.1-2.4-10.7c1.8-4.7,5.6-8.5,6.7-13.3c1.3-5.3-0.9-10.8-4-15.2
		c-3.2-4.4-7.4-7.9-11-11.9c-15.8-17.4-20-43-16.1-66.2c2.8-16.9,9.3-32.8,17.1-48.2C67,164.5,57.2,184.6,55,205.9
		c-2.7,25,5.6,51.5,24.5,68.2c3.2,2.8,5.7,6.3,7.1,10.2c5.3,14-8.4,15.8-10.8,25c-0.5,1.8-0.3,3.8,0.7,5.4
		C79.7,319.4,86.5,317.2,90.4,313.6L90.4,313.6z"/>
	<path class="st3" d="M172.7,350.9c-8,1.1-16.1,1.5-24.2,1.4c-7.7-0.1-16.1-1.1-21.8-6.2c-7.3-6.4-8.1-17.1-11.6-26.3
		c0.3,5.1-0.6,10.2-0.1,15.3c0.9,10.6,8,20.4,17.7,24.6c10.1,4.4,22.7,2.6,31.1-4.5C166.4,353,169.5,351.6,172.7,350.9z"/>
</g>
<radialGradient id="SVGID_1_" cx="-182.7934" cy="773.4754" r="1.0012" gradientTransform="matrix(35.7286 76.9904 76.9904 -35.7286 -52867.8086 41943.4688)" gradientUnits="userSpaceOnUse">
	<stop  offset="0" style="stop-color:#F9B01F"/>
	<stop  offset="0.21" style="stop-color:#F9AB1E"/>
	<stop  offset="0.44" style="stop-color:#FA9E1D"/>
	<stop  offset="0.67" style="stop-color:#FB881A"/>
	<stop  offset="0.92" style="stop-color:#FF6925"/>
	<stop  offset="1" style="stop-color:#FE5000"/>
</radialGradient>
<path class="st4" d="M161.5,129.1c4.1,9.5,8.4,18.9,12.6,28.4c4.1,9.5,6.8,17.4,9.9,27.7c3.3,10.7,6.6,21.5,11.1,31.9
	c4,9.5,9.5,17.9,15,26.6c5.7,9,10.3,18.3,14.1,28.2c0.8,2.2,1.6,4.3,2.4,6.5c1.9,7.6,5.5,14.9,8.8,22c1.1,2.3,2.9,4,5.1,5.1
	c0.8,1.8,1.6,3.6,2.6,5.4c-53.3,23.3-115.7-0.2-140.4-53.2c-25-53.8-1.6-117.6,52.2-142.6l6.3,13.6
	C161.3,128.7,161.4,128.9,161.5,129.1L161.5,129.1z"/>
<path class="st5" d="M161.5,129.1c4.1,9.5,8.4,18.9,12.6,28.4c8.5,19.1,12.7,40.1,21,59.5c4,9.5,9.5,17.9,15,26.6
	c7,10.9,12.2,22.5,16.5,34.7c1.9,7.6,5.5,14.9,8.8,22c1.1,2.3,2.9,4,5.1,5.1c0.8,1.8,1.6,3.6,2.6,5.4
	C111.9,362.2,29.4,179.2,154.9,115l6.3,13.6C161.3,128.7,161.4,128.9,161.5,129.1L161.5,129.1z"/>
<radialGradient id="SVGID_00000157999554606582049270000006280253816540669373_" cx="-119.9206" cy="780.5859" r="1" gradientTransform="matrix(2.2415 4.8302 4.8302 -2.2415 -3342.5552 2450.3794)" gradientUnits="userSpaceOnUse">
	<stop  offset="0" style="stop-color:#F9B06E"/>
	<stop  offset="0.12" style="stop-color:#F7AE69"/>
	<stop  offset="0.25" style="stop-color:#F4AA5C"/>
	<stop  offset="0.39" style="stop-color:#EDA346"/>
	<stop  offset="0.53" style="stop-color:#E59928"/>
	<stop  offset="0.67" style="stop-color:#DB8D03"/>
	<stop  offset="0.81" style="stop-color:#DC8A03"/>
	<stop  offset="0.88" style="stop-color:#E28207"/>
	<stop  offset="0.94" style="stop-color:#EC750C"/>
	<stop  offset="0.99" style="stop-color:#FB6214"/>
	<stop  offset="1" style="stop-color:#FE5000"/>
</radialGradient>
<path style="fill:url(#SVGID_00000157999554606582049270000006280253816540669373_);" d="M161.2,128.5l-6.3-13.6
	c0.5-0.3,1.1-0.5,1.7-0.7C157.1,119.2,159.3,124.1,161.2,128.5z"/>
<path class="st7" d="M160.6,128.8c0.1,0,0.2-0.1,0.2-0.1l-0.3,0.1L160.6,128.8L160.6,128.8z"/>
<path class="st7" d="M161,128.2c-0.2,0-0.4,0.1-0.7,0.2c0.3-0.1,0.2,0,0.5-0.1c0.1,0-0.1,0.1-0.2,0.2c0.1,0,0,0.1,0.2,0
	c0.2-0.2,0.2-0.2,0-0.2C160.9,128.3,161,128.3,161,128.2z"/>
<path class="st7" d="M159.7,123.9L159.7,123.9C159.7,123.9,159.7,123.9,159.7,123.9z"/>
<path class="st7" d="M158.9,121.2C158.9,121.2,159,121.2,158.9,121.2C159,121.2,158.9,121.2,158.9,121.2z"/>
<path class="st7" d="M159.1,120.7L159.1,120.7C159.1,120.7,159.1,120.7,159.1,120.7z"/>
<path class="st7" d="M159.7,123.9l0.1-0.1C159.7,123.8,159.7,123.8,159.7,123.9z"/>
<path class="st7" d="M160.1,128C160.1,128,160.1,128,160.1,128C160.2,128,160.1,128,160.1,128L160.1,128L160.1,128z"/>
<path class="st7" d="M160.4,124.9L160.4,124.9l0.1,0L160.4,124.9z"/>
<path class="st7" d="M160.8,125.8c0,0-0.2,0.1-0.4,0.1c0.1,0,0.2,0,0.2,0C160.7,125.8,160.8,125.8,160.8,125.8z"/>
<path class="st7" d="M160.2,124.3L160.2,124.3C160.3,124.2,160.3,124.3,160.2,124.3z"/>
<path class="st7" d="M161.9,127L161.9,127C161.8,127,161.9,127,161.9,127z"/>
<path class="st7" d="M161.1,128.5L161.1,128.5l-0.1,0L161.1,128.5z"/>
<path class="st7" d="M153.5,114.6c0.3,0,0.5,0.3,0.8,0.3C154.1,114.8,153.6,114.5,153.5,114.6z"/>
<path class="st7" d="M160.1,127.9C160.1,127.9,160.1,127.9,160.1,127.9C160.1,127.9,160.1,127.9,160.1,127.9z"/>
<path class="st7" d="M158.4,117.9c0,0-0.1,0-0.1,0C158.4,118,158.4,118,158.4,117.9z"/>
<path class="st7" d="M158.5,119.5L158.5,119.5C158.5,119.4,158.5,119.4,158.5,119.5z"/>
<path class="st7" d="M157.9,117.3C157.9,117.3,157.9,117.3,157.9,117.3L157.9,117.3C157.9,117.3,157.9,117.3,157.9,117.3z"/>
<path class="st7" d="M157.7,116.5L157.7,116.5L157.7,116.5L157.7,116.5L157.7,116.5z"/>
<path class="st7" d="M160.7,124.8c-0.1,0-0.1,0.1-0.2,0.1C160.7,124.8,160.8,124.9,160.7,124.8z"/>
<path class="st7" d="M160.2,127.9c-0.1,0-0.1,0-0.1,0L160.2,127.9C160.1,128,160.2,127.9,160.2,127.9L160.2,127.9z"/>
<path class="st7" d="M155.8,117.8l0-0.1C155.8,117.6,155.8,117.7,155.8,117.8z"/>
<path class="st7" d="M158.2,119.5L158.2,119.5C158.3,119.6,158.3,119.5,158.2,119.5z"/>
<path class="st7" d="M155.7,117.2c0.1,0,0.1-0.1,0.2-0.1c0,0,0,0-0.1,0L155.7,117.2z"/>
<path class="st7" d="M161.5,125.4c0-0.1-0.3,0.1-0.5,0.2c-0.2-0.1,0.2-0.2,0.3-0.3c-0.1,0-0.5,0-0.5,0c0.1,0,0.1-0.1,0.1-0.1
	c-0.3,0-0.1-0.3-0.5-0.2c0,0,0.1,0,0.1-0.1c-0.2,0.1-0.3,0.2-0.4,0.2c0-0.1-0.2,0,0-0.1c0,0,0.1,0,0.2,0l-0.1,0
	c0.3-0.2,0.1,0,0.4-0.1c-0.1-0.1-0.4-0.1-0.4-0.2c0.3-0.2,0.2,0.1,0.4-0.1l-0.1,0.2c0.4-0.3,0,0.1,0.5-0.2c0-0.2-0.2-0.1-0.2-0.3
	c-0.2,0-0.2,0.1-0.4,0.2c-0.4-0.1,0.7-0.5,0.2-0.5c-0.2,0-0.6,0.2-0.5,0l0.4-0.1c0-0.2-0.5,0.1-0.4-0.1c0.1,0,0.2,0.1,0.2,0
	c0.2-0.2-0.2,0-0.3-0.1l0.3-0.2c-0.1-0.1-0.4-0.2-0.6-0.4c0.1,0,0.2,0,0.3-0.1c-0.3-0.2-0.2-0.5-0.1-0.8l-0.3,0c0,0,0.1-0.1,0.2-0.1
	c0.1-0.1-0.2,0.1-0.3,0.1c0,0,0.1-0.1,0.2-0.1c-0.3-0.1-0.7-0.2-0.5-0.5l0.1,0c0-0.2-0.6,0.1-0.4-0.1l0.1,0c0-0.3-0.4-0.5-0.1-0.9
	c-0.4,0.1,0-0.3-0.5-0.1c0.2-0.3,0.3-0.3,0.4-0.6c0-0.1-0.4,0.1-0.5,0l0.3-0.1l-0.3,0l0.3-0.2l-0.1,0c0,0-0.1,0.1-0.2,0.1
	c-0.2,0,0.1-0.3,0.2-0.4l-0.3-0.1c0.1,0,0.2,0,0.3,0c-0.3,0,0.3-0.2,0-0.2c-0.1,0-0.2,0.1-0.2,0.1c0.1-0.1,0.1-0.3,0-0.3l0.2-0.1
	c0-0.2-0.3-0.3-0.4-0.6c0,0.1-0.4,0.2-0.4,0.2l0.3-0.2c-0.2,0-0.1,0.1-0.3,0.1c0-0.1,0.3-0.2,0.4-0.2l-0.1-0.1c0.1,0,0.1,0,0.2-0.1
	c-0.2,0,0.2-0.3-0.1-0.2l0.1,0c-0.1-0.2-0.2-0.3-0.3-0.4c-0.2,0.1-0.2,0-0.4,0.1c0-0.2,0.2-0.4,0.1-0.5c-0.2,0-0.2,0.1-0.4,0.1
	c0.2-0.1,0.1-0.2,0.3-0.3c-0.1-0.2-0.1-0.2-0.4-0.3c-0.1,0.1-0.1,0.1-0.2,0.1c-0.1,0,0.1-0.1,0.2-0.2l0,0c-0.1,0-0.1-0.1-0.1-0.2
	c0-0.1,0.1-0.1,0.2-0.2c0.1-0.1,0.3-0.1,0-0.1l0,0c-0.1,0-0.2,0-0.3-0.1c0,0,0.2,0,0.4,0c-0.2,0-0.2-0.1-0.2-0.1c0,0,0.1,0-0.1-0.1
	c0.5,0.1,0.5,0.1,0.5,0.1c0,0,0-0.1,0.2,0l-0.2-0.1c-0.1-0.1,0.1,0.1,0.2,0.1c-0.1-0.1-0.2-0.1-0.2-0.2c0-0.2,0.3-0.1,0.5,0.1
	l-2-1.1c0,0.1-0.1,0.3-0.1,0.4c0,0.2,0.9,0,0.5,0.3l-0.3,0c0.4,0.3,0.1,0.8,0.5,1.1c-0.1,0-0.2,0-0.2,0c-0.2,0.1,0,0.3,0.2,0.3
	c0,0.1-0.2,0-0.2,0.1c-0.1,0.1,0.3,0.1,0.1,0.2c0,0-0.1,0-0.1,0c0.1,0,0,0.2,0.3,0.1c-0.1,0.2,0.2,0.2,0,0.4c0.3,0-0.1,0.3,0.3,0.2
	c-0.4,0.1-0.3,0.3-0.1,0.3c-0.1,0-0.1,0.1-0.3,0.1c0,0.1,0.1,0.2,0.3,0.1c-0.5,0.3,0.5,0.3-0.1,0.5c0.3,0.2,0.5,0.4,0.7,0.7
	c-0.4,0.1-0.1-0.3-0.6-0.1c0.2,0.2,0.6,0.2,0.6,0.5c0,0.1-0.2,0-0.3,0c0.2,0.2,0.1,0.5,0.4,0.6c0,0-0.1,0-0.1,0c0,0,0,0.1,0.2,0.1
	l-0.1,0c0.3-0.2,0.6,0,0.8-0.1c-0.6,0.1-0.1,0.2-0.8,0.3c0,0,0.1,0,0.3,0c0,0.1-0.1,0.1-0.3,0.1c0.1,0.1,0.3,0,0.4,0.1
	c-0.1,0-0.1,0-0.2,0c0.2,0,0.4,0,0.4,0.2c-0.1,0-0.1,0-0.1,0c0.1,0.2,0.6,0.2,0.5,0.4c-0.4,0.1-0.1,0.1-0.4,0.2l0.1,0.1l0.1-0.1
	c0,0.1,0.3,0.1,0.2,0.2l-0.2,0l0.1,0.2l0.1-0.2c0.2,0,0.4-0.2,0.4,0c0,0,0,0.1-0.2,0.2c0.1,0,0.3,0,0.2,0.1
	c-0.1,0.1-0.4,0.1-0.4,0.2c0.3-0.1,0.2,0.2,0.5,0.2c-0.1,0-0.3,0.1-0.3,0.1l0.2,0c-0.1,0.1-0.1,0.1-0.2,0.1c0,0.2,0.4-0.2,0.3,0
	c0,0-0.1,0-0.1,0c0,0.2,0.3,0.3,0.2,0.4c-0.3,0.2-0.1-0.1-0.4,0.1c0.1,0.2,0.6,0.3,0.6,0.5l0-0.1c0.5-0.2-0.2,0.2,0.1,0.3
	c0,0-0.3,0.1-0.2,0.1c0,0.2,0.2,0.2,0.5,0.4l-0.1,0c-0.1,0.1,0,0.2,0,0.4c0.1,0,0.1,0,0.3-0.1c-0.6,0.6,0.6,0.4,0.1,0.8
	c0,0-0.1,0-0.1,0l0.2,0.2c0.2-0.1,0.1-0.1,0.3-0.2c0.1,0,0.3,0,0.3,0c-0.2,0-0.3,0.1-0.4,0.2c0.1,0,0.1,0,0.2-0.1
	c-0.3,0.3,0.4-0.2,0.2,0.1l-0.1,0c0.1,0,0.2,0,0.2,0.1c-0.2,0.1-0.1,0-0.3,0.1c0.1,0.1,0.5,0,0.3,0.1c-0.1,0-0.1-0.1-0.2-0.1
	c-0.2,0.2-0.2,0.2-0.2,0.3l-0.1,0.2l0.1-0.1c0.7-0.2,0.2,0.2,0.7,0.1c-0.4,0-0.2,0.1-0.5,0.2c-0.1,0.1-0.1,0.2-0.2,0.2
	c0.2,0-0.1,0.2,0.2,0.1c-0.1,0,0,0.1-0.2,0.2c0.1,0.1,0.1-0.1,0.3-0.1c0.4,0-0.2,0.5,0.3,0.5c0.2,0.1,0.5,0,0.8,0.1
	c-0.1,0.1-0.3,0.1-0.3,0.1c-0.1,0.1,0,0.2,0.1,0.2c-0.1,0-0.1,0.1-0.2,0.1c0,0.1,0.3-0.1,0.2,0c-0.1,0-0.3,0.1-0.4,0.1
	c0.1,0,0.3,0,0.4,0.1c-0.1,0.1-0.3,0-0.4,0.1c0.1,0.1,0.2,0.2,0.5,0.1l0.1-0.1c0,0-0.2,0.1-0.3,0.1c-0.2,0,0-0.1,0.1-0.2l0.1,0
	c0.5-0.3-0.2-0.2-0.2-0.3l0.4-0.1l-0.3,0c0.1-0.1,0.3-0.2,0.4-0.1c0.1-0.2-0.2,0,0-0.2c0,0,0.1,0,0.1,0l-0.1,0
	c0.1,0,0.3-0.1,0.2-0.1c0.2-0.2-0.4-0.1-0.1-0.3l0,0c-0.2-0.1-0.3,0.1-0.7,0.1l0.6-0.4l-0.3,0.1c0,0,0-0.1,0.1-0.1
	c-0.2,0-0.1,0.1-0.3,0.1c0.2-0.2-0.2-0.2,0.2-0.4c-0.2,0.1-0.1,0.2-0.3,0.1c0.5-0.2-0.1-0.1,0-0.3c0.2-0.1,0.2,0.1,0.3-0.1
	c-0.4,0.1,0-0.2-0.1-0.2c-0.3,0.1-0.2-0.1-0.4-0.2c0.1,0,0.1-0.3,0.1-0.5l0.1,0c-0.3,0.1-0.3,0-0.4-0.1c0.2-0.1,0.3-0.1,0.4-0.1
	l0-0.1c-0.1,0-0.2,0-0.2,0l0.2-0.1c-0.1-0.1-0.4-0.1-0.3-0.3c-0.2,0.1-0.6,0.4-0.8,0.3c0.1-0.1,0.3-0.1,0.4-0.1c0,0-0.1,0-0.1-0.1
	l0.2,0c0.1-0.1-0.2,0-0.2,0c0.2-0.1,0.1-0.1,0.2-0.1c0,0-0.1,0.1,0,0.1c0-0.1,0.1-0.2,0.2-0.3c-0.1,0-0.2,0.1-0.3,0.1
	c-0.1-0.1,0.2-0.1,0.3-0.2c-0.1,0,0-0.1-0.3,0c0,0,0.1-0.1,0.2-0.1c-0.1,0-0.1-0.2-0.4-0.1l0,0l0,0c-0.3-0.1,0-0.4-0.2-0.6l0.1,0
	c-0.1-0.1-0.2-0.2-0.4-0.2c0,0,0.1-0.1,0.2-0.2c-0.1-0.1-0.2,0-0.1-0.2c0.2,0,0.1-0.1,0.1,0c0-0.1,0.2-0.2-0.1-0.2
	c0.2-0.1,0.3-0.2,0.2-0.2l-0.1,0.1c-0.1,0-0.1-0.1-0.1-0.2l0.3-0.1c0.3-0.4-0.8-0.2-0.2-0.6c-0.2,0-0.1,0.2-0.4,0.2
	c0-0.1,0.4-0.4,0.4-0.4c0.1-0.2-0.5,0-0.4-0.2c-0.1,0.1-0.4,0.2-0.5,0.1c0-0.1,0.4-0.3,0.5-0.3c0,0,0,0,0,0.1c0.1,0,0.1,0,0.2,0
	l-0.1,0c0.1-0.1,0-0.2,0.2-0.2c-0.1,0-0.2,0-0.2,0.1c0.1-0.2-0.1-0.2,0-0.4c-0.1,0-0.2,0.1-0.2,0.1c0.1-0.2-0.2,0-0.3-0.1
	c0.1-0.1,0.4-0.1,0.2-0.2c0.1-0.1,0.3-0.1,0.4-0.1c-0.3,0,0.1-0.3,0.1-0.3l0.1,0c-0.1,0-0.1-0.1-0.1-0.1l-0.2,0.1
	c0-0.1,0-0.1,0.1-0.1c-0.2,0-0.4,0.1-0.6,0.1c0.1-0.1-0.2-0.1,0.1-0.2c0,0.2,0.3-0.1,0.4,0c0,0,0,0,0-0.1c0,0,0.1,0,0.1,0
	c0.2-0.2-0.4,0-0.4-0.1c0.2,0,0.3-0.1,0.3-0.2c0,0.1-0.3,0.1-0.4,0.1c0.1-0.1-0.1-0.1-0.1-0.1l0,0.1c-0.2,0-0.2,0-0.2-0.1
	c0.1,0,0.1,0,0.2,0c-0.3,0,0.2-0.3,0-0.3c0.1-0.1,0.3-0.1,0.4-0.2c-0.2-0.1,0.2-0.2,0-0.3c-0.2,0.1-0.2,0.1-0.4,0.1l0.2,0.2l-0.4,0
	c0,0.1,0.2,0.1,0.2,0.1c-0.2,0-0.1,0-0.3,0.1c0.3-0.2-0.2-0.1-0.1-0.3l0.6-0.2c0.2-0.2-0.4-0.2-0.3-0.4l-0.1,0.1
	c-0.2,0-0.1-0.1-0.2-0.2c0.2,0,0.2-0.1,0.3-0.2c-0.1,0,0-0.1-0.4-0.1l0.2-0.1c0.1-0.2-0.6-0.1-0.5-0.2c0.2,0,0.3-0.1,0.5,0
	c0,0,0-0.1-0.1-0.1c0.1-0.1-0.3-0.1-0.1-0.2c-0.1,0-0.3,0-0.3,0c0,0,0.1,0,0.1,0c-0.1,0-0.1-0.1-0.3,0c0.5-0.3-0.1-0.4,0.3-0.7
	c-0.1-0.1-0.2-0.2-0.2-0.3c0.1,0,0.1,0,0.1,0c0.1-0.2-0.6,0-0.4-0.2c0.3-0.1,0.2,0.1,0.3,0c0.6-0.1-0.1-0.2,0.2-0.4l0,0
	c0.2-0.1-0.3-0.2-0.2-0.3c0,0,0.1,0,0.1,0c-0.3,0-0.5-0.2-0.6-0.3c0.3,0,0.1,0,0.4,0c0-0.1-0.4,0.1-0.5,0c0.1-0.1,0.2-0.2,0.5-0.2
	l0,0.1c0.3-0.1,0-0.1,0-0.2l0.2,0c-0.1-0.2-0.4-0.1-0.4-0.3l-0.1,0c-0.4-0.1,0.2-0.1-0.1-0.2l0.4-0.1c0,0,0,0,0,0l-0.8-1.1l-0.2,0.5
	c-0.1,0.1-0.1,0.5-0.2,0.6c-0.1-0.3,0-0.5,0.1-0.7c-0.1,0-0.3,0.2-0.2,0.3c0,0,0-0.1,0.1-0.1c0,0.3,0,0.5-0.1,0.5
	c-0.5-0.6-0.5,0-1.2-0.3c-0.1,0.3-0.8,0.2-1.2,0.5c0.9,0.2-0.1,0.1,0.7,0.4c0.1,0.1,0.1,0.1,0,0.1c-0.1,0-0.2,0.1-0.3,0.1
	c-0.2,0-0.2-0.1-0.4-0.2c0,0.2-0.3,0-0.4,0.1c0.2,0,0.4,0.2,0.4,0.3c0.1-0.1,0.2-0.1,0.2-0.1c0.5,0.3-0.5,0.2,0.1,0.6l-0.3-0.1
	c0.2,0.2,0.3,0.7,0.9,0.7c-0.1,0-0.2,0.1-0.3,0.1c0.1,0.2,0.3,0.4,0.5,0.5c0.1,0.1,0.3,0.2,0.2,0.3l-0.1,0c0.1,0,0.3,0,0.2,0.1
	c0,0-0.1,0-0.1,0.1c0.1,0,0.3,0,0.2,0.1l-0.2,0c-0.1,0.3,0.5,0.2,0.7,0.3c-0.4,0.2-0.4,0.4-0.5,0.5l-0.1,0c0.1,0.3,0.5,0.3,0.8,0.4
	c-0.3,0.3,0.1,0.6-0.1,0.9c0-0.1,0.3-0.1,0.4-0.1c-0.1,0.1,0.3,0,0,0.2l0,0c-0.3,0.2-0.2,0.3-0.2,0.4l0.5-0.2
	c-0.6,0.5,0.5,0.5,0,0.9c0.1,0,0.2,0.1,0.3,0.1l-0.3,0.1c0,0.2,0,0.3,0.2,0.4l-0.2,0c0,0.1,0.8-0.2,0.8-0.1l-0.4,0.2
	c0.1,0.2-0.1,0.5,0.3,0.6c-0.1,0-0.2,0.1-0.2,0c0,0.1-0.1,0.5,0.4,0.2c-0.3,0.2,0.1,0.2,0.2,0.2l-0.3,0.1c0.3-0.1,0.4-0.1,0.6,0
	c0,0-0.2,0.1-0.1,0.1c-0.1,0.2,0.3,0,0.2,0.1l-0.2,0c0,0.1,0.1,0.1,0.3,0c0.1,0,0,0.2-0.2,0.3c0.1,0,0.3-0.1,0.3,0
	c-0.1,0-0.1,0-0.2,0.1c-0.1,0.2,0.4,0.1,0.2,0.3c-0.1,0-0.1,0.1-0.1,0.1c-0.1-0.1-0.1-0.2-0.1-0.2c-0.2,0.1-0.2,0.2-0.6,0.3
	c0.2,0,0.6,0,0.6,0.1c0,0,0,0-0.1,0.1l0,0c0,0,0,0,0.1,0.1c0,0.1,0,0.1,0,0.1c-0.2,0.1,0,0.2,0,0.2c0.2-0.1,0.2,0,0.4-0.2
	c0,0,0,0-0.1,0c0,0,0,0,0,0l0,0c0,0-0.1-0.1-0.1-0.1c0.1,0,0.3,0,0.2,0.1c0.2,0,0.3-0.1,0.4-0.1c-0.3,0.2-0.4,0.5-0.6,0.6
	c0.2,0.1,0.3,0.3,0.8,0.2c0.1,0-0.1,0.1-0.2,0.2c-0.1,0-0.1,0-0.1,0c0.2,0,0.2,0.2,0.5,0.1c-0.1,0.2-0.3,0.1-0.2,0.2l-0.1,0
	c-0.4,0.6,1.1,0.1,0.6,0.8c0,0,0-0.1,0.1-0.1c-0.1,0.5,0.6,0.7,0.4,1.3c0,0.2,0.2,0.1,0.4,0.1l-0.2,0.1l0.4,0c0.3,0.1-0.5,0.6,0,0.6
	l0.2-0.1c0,0.1,0.2,0.2,0,0.3c0,0,0.2-0.1,0.1,0l-0.1,0.1l0.3,0.1c0,0.2-0.6,0.2-0.5,0.4c0.1,0.1,0.5,0,0.6,0c0,0,0.1-0.1,0.2-0.2
	l0.1,0c0.4-0.2,0.8-0.3,1.1-0.6l-0.3,0l0.2-0.1l0.1,0.1c0.2-0.1,0-0.1-0.2-0.1c0.1-0.1,0.2-0.1,0.2-0.2l-0.4,0.1
	c0.2-0.1,0.3-0.1,0.4-0.2c-0.2,0-0.3,0.2-0.5,0.2c0.2-0.1,0.3-0.2,0.1-0.2c0.1-0.1,0.2-0.1,0.2-0.1c-0.2,0-0.1-0.1-0.4-0.1
	c0.2-0.2-0.2-0.2,0.2-0.3c-0.1,0-0.4,0-0.4,0c0.5-0.1-0.1-0.2,0.4-0.4c-0.5,0.1-0.3-0.2-0.6-0.2c0,0,0.1,0,0.1,0
	c0-0.1,0.1-0.2,0.2-0.2c-0.3,0.1-0.5,0.1-0.7,0.1c0.3-0.2,0.4-0.1,0.7-0.3c-0.3,0.1-0.4,0-0.6,0.1c0.2-0.2,0.1-0.1,0.3-0.3
	c-0.4,0.2-0.1,0-0.4,0c0.2-0.2,0.4-0.2,0.2-0.3C161.3,125.4,161.5,125.4,161.5,125.4L161.5,125.4z M159.5,123.2L159.5,123.2
	L159.5,123.2L159.5,123.2z M159.4,123C159.4,123,159.4,123,159.4,123c0,0.1-0.1,0.2-0.1,0.2C159.3,123.1,159.4,123,159.4,123z
	 M157.9,124.2C157.9,124.2,157.9,124.2,157.9,124.2C158,124.2,158,124.2,157.9,124.2l0.1,0C158,124.2,158,124.2,157.9,124.2z"/>
<path class="st7" d="M158.3,124.1C158.3,124.1,158.3,124.1,158.3,124.1L158.3,124.1L158.3,124.1L158.3,124.1L158.3,124.1z"/>
<path class="st7" d="M159.7,123.9C159.7,123.9,159.7,124,159.7,123.9L159.7,123.9z"/>
<path class="st7" d="M158.5,119.7L158.5,119.7L158.5,119.7L158.5,119.7z"/>
<path class="st7" d="M159.4,125.5C159.4,125.5,159.3,125.6,159.4,125.5C159.3,125.6,159.3,125.5,159.4,125.5z"/>
<path class="st7" d="M159.5,126.1l-0.1,0.1C159.5,126.1,159.5,126.1,159.5,126.1z"/>
<path class="st7" d="M159.6,126.5l0.1,0L159.6,126.5z"/>
<path class="st7" d="M156.8,120C156.8,120,156.7,120,156.8,120C156.7,120,156.7,120,156.8,120z"/>
<path class="st7" d="M158,121.8c-0.1,0-0.1,0-0.1,0C157.9,121.8,157.9,121.9,158,121.8z"/>
<path class="st7" d="M157.9,121.7C157.8,121.8,157.8,121.8,157.9,121.7C157.9,121.8,157.9,121.7,157.9,121.7z"/>
<path class="st7" d="M160.2,128.3L160.2,128.3L160.2,128.3L160.2,128.3L160.2,128.3z"/>
<path class="st7" d="M160.2,128.4L160.2,128.4C160.3,128.4,160.3,128.3,160.2,128.4z"/>
<path class="st7" d="M160.4,128.4L160.4,128.4C160.3,128.4,160.3,128.4,160.4,128.4z"/>
<path class="st7" d="M160.1,127.8L160.1,127.8C160,127.8,160,127.8,160.1,127.8z"/>
<path class="st7" d="M160,127.6c0,0-0.2,0.2-0.1,0.2l0.1,0C159.8,127.8,160.2,127.6,160,127.6L160,127.6z"/>
<path class="st7" d="M160.8,126.5l0,0.2c0.1-0.1,0.2-0.2,0.2-0.1C161.3,126.2,160.9,126.7,160.8,126.5z"/>
<path class="st7" d="M160.8,126c0.1,0.1,0.1-0.1,0.2-0.1C160.9,125.9,160.8,125.9,160.8,126z"/>
<path class="st7" d="M159.5,122.9l0.2-0.1C159.7,122.8,159.7,122.9,159.5,122.9z"/>
<path class="st7" d="M158.1,122.8l-0.1,0.1l0.2-0.1L158.1,122.8z"/>
<path class="st7" d="M159.6,121.8L159.6,121.8L159.6,121.8L159.6,121.8z"/>
<path class="st7" d="M158,116.6l-0.3,0.1C157.8,116.7,158.1,116.7,158,116.6z"/>
<path class="st7" d="M157.3,114.4c0.1,0,0.2-0.1,0.1-0.1C157.4,114.3,157.3,114.3,157.3,114.4z"/>
<path class="st7" d="M156,120.2l-0.1,0L156,120.2L156,120.2z"/>
<radialGradient id="SVGID_00000127751275326452406690000014880851555714219934_" cx="589.472" cy="860.6996" r="1.0015" gradientTransform="matrix(0.1936 0.4171 0.4171 -0.1936 -317.184 153.5342)" gradientUnits="userSpaceOnUse">
	<stop  offset="0" style="stop-color:#FFF5E9"/>
	<stop  offset="9.000000e-02" style="stop-color:#FEF4E4"/>
	<stop  offset="0.19" style="stop-color:#FDF1D7"/>
	<stop  offset="0.29" style="stop-color:#FCECC1"/>
	<stop  offset="0.39" style="stop-color:#FAE5A2"/>
	<stop  offset="0.5" style="stop-color:#F7DD7B"/>
	<stop  offset="0.6" style="stop-color:#F4D24B"/>
	<stop  offset="0.67" style="stop-color:#F2CB27"/>
	<stop  offset="1" style="stop-color:#FFF9E0"/>
</radialGradient>
<path style="fill:url(#SVGID_00000127751275326452406690000014880851555714219934_);" d="M184,185.2c3.3,10.7,6.6,21.5,11.1,31.9
	c4,9.5,9.5,17.9,15,26.6c5.7,9,10.3,18.3,14.1,28.2c0.8,2.2,1.6,4.3,2.4,6.5c1.9,7.6,5.5,14.9,8.8,22c0.1,0.2,0.2,0.5,0.4,0.7
	c-47,19.4-101.5-1.5-123.1-48.1c-22.2-47.8-1.3-104.7,46.4-126.9l17.8,38.4C179.5,171.2,181.6,177.6,184,185.2L184,185.2z"/>
<path class="st9" d="M184,185.2c3.3,10.7,6.6,21.5,11.1,31.9c4,9.5,9.5,17.9,15,26.6c5.7,9,10.3,18.3,14.1,28.2
	c0.8,2.2,1.6,4.3,2.4,6.5c2,7.9,5.7,15.4,9.2,22.7c-47,19.4-101.5-1.5-123.1-48.1c-22.2-47.8-1.3-104.7,46.4-126.9l17.8,38.4
	C179.5,171.2,181.6,177.6,184,185.2L184,185.2z"/>
<radialGradient id="SVGID_00000043425792866443361330000012200065809214148487_" cx="-163.1431" cy="775.6979" r="1" gradientTransform="matrix(6.3025 13.5812 13.5812 -6.3025 -9338.1162 7249.7207)" gradientUnits="userSpaceOnUse">
	<stop  offset="0" style="stop-color:#FFF5E9"/>
	<stop  offset="9.000000e-02" style="stop-color:#FEF4E4"/>
	<stop  offset="0.19" style="stop-color:#FDF1D7"/>
	<stop  offset="0.29" style="stop-color:#FCECC1"/>
	<stop  offset="0.39" style="stop-color:#FAE5A2"/>
	<stop  offset="0.5" style="stop-color:#F7DD7B"/>
	<stop  offset="0.6" style="stop-color:#F4D24B"/>
	<stop  offset="0.67" style="stop-color:#F2CB27"/>
	<stop  offset="1" style="stop-color:#FFF9E0"/>
</radialGradient>
<path style="fill:url(#SVGID_00000043425792866443361330000012200065809214148487_);" d="M161.5,129.1c4.1,9.5,8.4,18.9,12.6,28.4
	c1,2.4,2,4.7,2.9,6.9l-17.8-38.4c0.3-0.1,0.6-0.3,0.9-0.4C160.5,126.9,161,128,161.5,129.1L161.5,129.1z"/>
<path class="st11" d="M160.8,129.4c0.1,0,0.3-0.1,0.2-0.2l-0.3,0.1L160.8,129.4L160.8,129.4z"/>
<path class="st11" d="M161.1,128.4c-0.2-0.1-0.5-0.1-0.8,0.1c0.4,0,0.2,0.1,0.7,0.1c0.1,0.1,0,0.2-0.1,0.3c0.1,0,0,0.2,0.2,0.2
	c0.2-0.2,0.1-0.4-0.2-0.6C160.9,128.4,161,128.4,161.1,128.4L161.1,128.4z"/>
<path class="st11" d="M162.1,133.8L162.1,133.8C162.1,133.7,162.1,133.7,162.1,133.8z"/>
<path class="st11" d="M165.1,140.7c0,0-0.1-0.1-0.1,0C165,140.7,165.1,140.7,165.1,140.7z"/>
<path class="st11" d="M165.3,142L165.3,142C165.3,141.9,165.3,142,165.3,142z"/>
<path class="st11" d="M162.1,133.8l0,0.2C162.2,134,162.1,133.9,162.1,133.8z"/>
<path class="st11" d="M159.7,127.1c0,0,0.1,0.1,0.1,0.1C159.8,127.2,159.7,127.2,159.7,127.1L159.7,127.1L159.7,127.1z"/>
<path class="st11" d="M160.5,130.9L160.5,130.9c0-0.1-0.1,0-0.2,0L160.5,130.9L160.5,130.9z"/>
<path class="st11" d="M159.3,128.6c0,0.1,0.3,0,0.4-0.1c-0.1,0-0.2,0-0.2,0C159.5,128.5,159.4,128.5,159.3,128.6z"/>
<path class="st11" d="M160.5,126.2L160.5,126.2L160.5,126.2z"/>
<path class="st11" d="M161.2,132.6C161.2,132.6,161.1,132.6,161.2,132.6C161.1,132.6,161.1,132.6,161.2,132.6z"/>
<path class="st11" d="M161.4,132.3L161.4,132.3C161.5,132.3,161.4,132.3,161.4,132.3z"/>
<path class="st11" d="M161.5,129.1L161.5,129.1l0.2,0L161.5,129.1z"/>
<path class="st11" d="M166,144.3C165.9,144.2,165.9,144.3,166,144.3L166,144.3z"/>
<path class="st11" d="M175.2,163.8c0.1-0.3,0.5,0.2,0.6-0.2C175.7,163.6,175.3,163.4,175.2,163.8z"/>
<path class="st11" d="M159.7,127.1C159.7,127.1,159.6,127,159.7,127.1C159.6,127,159.7,127.1,159.7,127.1z"/>
<path class="st11" d="M168.4,149.1c0,0,0.1-0.1,0.1-0.1C168.5,149.1,168.4,149.1,168.4,149.1z"/>
<path class="st11" d="M167.1,145.3l0,0.1C167.1,145.4,167.1,145.3,167.1,145.3z"/>
<path class="st11" d="M169.6,150.9c0,0.1,0,0.1,0,0.1c0,0,0,0,0,0C169.7,151,169.6,151,169.6,150.9L169.6,150.9z"/>
<path class="st11" d="M170.6,152.8C170.6,152.8,170.6,152.8,170.6,152.8l0-0.1L170.6,152.8z"/>
<path class="st11" d="M164.2,138.4c0-0.1,0.1-0.1,0.2-0.2C164.2,138.3,164,138,164.2,138.4z"/>
<path class="st11" d="M159.8,127.1c-0.1,0-0.1,0-0.1,0L159.8,127.1C159.7,127.1,159.8,127.1,159.8,127.1z"/>
<path class="st11" d="M171.8,150l0.1,0.3C171.8,150.2,171.8,150.1,171.8,150z"/>
<path class="st11" d="M170.6,152.7L170.6,152.7C170.5,152.6,170.5,152.7,170.6,152.7z"/>
<path class="st11" d="M172.3,151.2c-0.1,0.1-0.1,0.2-0.1,0.3c0,0,0.1,0,0.1,0L172.3,151.2z"/>
<path class="st11" d="M162.9,136.3c0.1,0.3,0.4,0,0.6,0c0.3,0.3-0.2,0.3-0.3,0.5c0.2,0.2,0.6,0.2,0.6,0.4c-0.1,0-0.1,0.1-0.1,0.1
	c0.4,0.1,0.3,0.7,0.8,0.8c0,0,0,0.1-0.1,0.1c0.2-0.1,0.3-0.2,0.5-0.2c0.1,0.1,0.3,0.2,0.1,0.3c0-0.1-0.1,0-0.2-0.1l0.2,0.1
	c-0.3,0.3-0.2-0.1-0.4,0c0.2,0.2,0.6,0.4,0.6,0.7c-0.3,0.2-0.3-0.5-0.5,0l0-0.4c-0.4,0.5-0.1-0.2-0.5,0.2c0.1,0.5,0.4,0.4,0.5,0.9
	c0.2,0,0.2-0.1,0.5-0.1c0.6,0.5-0.6,0.8,0,1.1c0.3,0,0.7-0.1,0.6,0.3l-0.4,0c0.1,0.4,0.6,0,0.6,0.6c-0.2,0-0.3-0.3-0.3-0.2
	c-0.2,0.4,0.3,0.1,0.4,0.3l-0.3,0.2c0.2,0.4,0.7,0.8,1,1.3c-0.1,0-0.2,0-0.3,0.1c0.4,0.6,0.5,1.3,0.6,2l0.4,0.1
	c0,0.1-0.1,0.2-0.2,0.1c0,0.3,0.2-0.1,0.3,0c0.1,0.1-0.1,0.2-0.2,0.2c0.4,0.3,1,1,0.9,1.5l-0.1,0c0,0.4,0.7,0.1,0.6,0.6l-0.1,0
	c0.2,0.8,0.8,1.5,0.6,2.2c0.4-0.1,0.1,0.8,0.7,0.6c-0.1,0.5-0.2,0.5-0.2,1.1c0,0.2,0.5,0.1,0.6,0.3l-0.3,0.1l0.4,0.1l-0.3,0.3
	l0.2,0.1c0-0.1,0.1-0.2,0.2-0.2c0.3,0.2,0.1,0.8,0,0.9l0.5,0.6c-0.1,0-0.2-0.1-0.3-0.1c0.5,0.2-0.3,0.2,0.1,0.4
	c0.1-0.1,0.2-0.1,0.2-0.1c-0.1,0.2,0.1,0.6,0.3,0.9l-0.2,0c0.2,0.5,0.6,1,0.8,1.6c0-0.2,0.4-0.3,0.5-0.2l-0.3,0.2
	c0.2,0,0-0.2,0.4-0.1c0.1,0.2-0.3,0.3-0.4,0.2l0.2,0.2c-0.1,0.1-0.2,0-0.3,0.1c0.2,0-0.1,0.6,0.3,0.6l-0.1,0.1
	c0.2,0.6,0.5,0.8,0.7,1.2c0.3-0.1,0.3,0.1,0.6,0.1c0.1,0.4,0,0.8,0.2,1.2c0.2,0.2,0.3,0,0.5,0.1c-0.2,0.1,0,0.5-0.3,0.4
	c0.2,0.5,0.3,0.6,0.8,1.1c0.1-0.1,0.1-0.2,0.2-0.2c0.1,0.1,0,0.3-0.1,0.3l0,0c0.7,0.5,0,1.9,0.7,2.2l0,0l0.5,0.5
	c0.1,0.3-0.2-0.1-0.3,0.2c0.1,0.1,0.2,0.2,0.3,0.3l2.1-0.9c-0.3-0.4-0.2-0.8-0.6-1.1c0.5-0.7-0.7-1.4-0.5-2.1l-0.1,0.1
	c-0.2-0.1,0-0.2,0-0.3c-0.1,0.1-0.1,0.2-0.2,0.2c-0.7-1.1-0.9-2.5-1.3-3.7c-0.2-0.4-1,0.2-0.8-0.6l0.4,0c-0.8-0.7-0.8-1.8-1.5-2.5
	c0.1,0,0.2,0,0.2,0.1c0.1-0.3-0.3-0.7-0.5-0.6c0-0.1,0.1-0.1,0.2-0.2c0-0.2-0.5-0.3-0.3-0.5c0,0,0.1,0,0.1,0
	c-0.2-0.1-0.2-0.6-0.4-0.3c0-0.4-0.4-0.6-0.4-0.9c-0.4,0-0.1-0.6-0.6-0.5c0.4-0.2,0.1-0.7-0.2-0.8c0.2,0,0-0.2,0.3-0.2
	c-0.1-0.2-0.3-0.4-0.5-0.3c0.3-0.7-0.8-0.7-0.3-1.2c-0.5-0.6-1-1.1-1.4-1.7c0.4-0.2,0.4,0.7,0.8,0.4c-0.4-0.5-1-0.7-1.1-1.3
	c0-0.2,0.2,0,0.3,0c-0.4-0.5-0.5-1.2-1-1.6c0,0,0.1,0,0.2,0.1c-0.1-0.1,0-0.3-0.2-0.2l0.1,0.1c-0.2,0.3-0.8-0.1-0.9-0.1
	c0.6-0.1-0.1-0.6,0.7-0.6c-0.1,0-0.2-0.1-0.3,0c0-0.1,0.1-0.2,0.2-0.2c-0.3-0.3-0.4-0.1-0.6-0.4c0.1,0,0.2,0,0.3,0
	c-0.3-0.1-0.5-0.2-0.6-0.5c0.1,0,0.1-0.1,0.2,0c-0.3-0.5-0.9-0.6-0.9-1.2c0.5,0,0-0.2,0.4-0.4l-0.2-0.2l-0.1,0.2
	c-0.1-0.3-0.5-0.4-0.5-0.6l0.2,0.1l-0.3-0.4l0,0.3c-0.3-0.2-0.4,0.2-0.5-0.1c0.1,0-0.1-0.3,0-0.5c-0.2-0.1-0.3-0.1-0.3-0.4
	c0.1-0.1,0.4-0.1,0.5-0.2c-0.3,0-0.4-0.5-0.7-0.6c0.1,0,0.3-0.1,0.3-0.1l-0.3,0c0-0.2,0.1-0.2,0.2-0.2c-0.1-0.4-0.4,0.3-0.4-0.2
	c0,0,0.1,0,0.1,0c-0.1-0.5-0.5-0.7-0.6-1.2c0.3-0.3,0.2,0.3,0.5,0c-0.3-0.5-0.9-0.9-1.1-1.5l0,0.1c-0.5,0.2,0.1-0.5-0.3-0.7
	c0.1,0,0.3,0,0.2,0c-0.1-0.4-0.5-0.7-0.9-1.2l0.2,0c0-0.3-0.2-0.6-0.2-0.9c-0.2,0-0.2-0.2-0.3,0c0.4-1.1-1-1.2-0.7-2.1
	c0,0.1,0.2,0.1,0.2,0.1l-0.4-0.5c-0.2,0.1-0.1,0.1-0.2,0.3c-0.2,0-0.3-0.1-0.4-0.2c0.3,0.2,0.3-0.2,0.4-0.3c-0.1,0-0.1,0-0.2,0.1
	c0.2-0.5-0.5,0.2-0.4-0.3l0.1,0c-0.1-0.1-0.3-0.2-0.4-0.4c0.2-0.2,0.2,0.1,0.4,0c-0.1-0.2-0.7-0.2-0.5-0.5c0.1,0.1,0.2,0.2,0.3,0.3
	c0.2-0.3,0.1-0.3,0.1-0.5l0,0l0-0.4l0,0.1c-0.8,0-0.4-0.5-1-0.7c0.6,0.2,0.3,0,0.6-0.2c0-0.1,0.1-0.3,0.2-0.3
	c-0.3-0.1,0-0.4-0.4-0.5c0.1-0.1-0.1-0.2,0.2-0.3c-0.2-0.2-0.1,0.1-0.3,0.2c-0.3-0.1-0.2-0.5-0.3-0.9l-0.4,1.1
	c0.2,0,0.3-0.1,0.4-0.4c0.1-0.2,0.2-0.3,0.3-0.5l-0.5-0.2c0.2,0.1,0.4,0.2,0.6,0.4c-0.1,0.2-0.4,0-0.4,0c-0.1,0.3,0.1,0.4,0.2,0.6
	c-0.1,0-0.2,0.1-0.2,0.2c0.1,0.2,0.4,0,0.3,0.2c-0.1,0-0.3,0-0.4,0c0.2,0.2,0.4,0.3,0.6,0.4c-0.1,0.1-0.3,0-0.4,0
	c0.2,0.2,0.4,0.5,0.7,0.5l0-0.2c0,0.1-0.2,0.1-0.3,0.1c-0.3-0.1,0-0.3,0.1-0.4l0.1,0.1c0.5-0.4-0.3-0.5-0.4-0.8l0.4,0l-0.5-0.2
	c0.1-0.1,0.3-0.2,0.4-0.1c0.1-0.3-0.2-0.1-0.1-0.4c0,0,0.1,0,0.1,0l-0.2-0.2c0.1,0,0.3-0.2,0.3,0c0-0.3-0.1-0.4-0.2-0.5l-0.4-0.3
	l-0.1,0.1c-0.1,0.1-0.1,0.2-0.3,0.1l0,0c-0.4,0.4,0.1,0.3-0.1,0.8l-0.6-0.6l0,0.1l-0.2,0.5l0.2-0.1c0,0.1,0,0.2-0.1,0.2
	c0.3,0.1,0.1-0.1,0.3-0.1c-0.1,0.4,0.4,0.6,0,0.9c0.3,0,0.1-0.3,0.3-0.1c-0.5,0.3,0.2,0.3,0.1,0.6c-0.3,0-0.2-0.2-0.4,0.1
	c0.5-0.1,0.1,0.5,0.3,0.6c0.3-0.1,0.3,0.4,0.6,0.6c-0.1,0,0.1,0.7,0.1,1.1l-0.1,0c0.4-0.1,0.5,0.2,0.6,0.4c-0.2,0.1-0.3,0.1-0.5,0
	l0.1,0.2c0.1,0,0.2,0,0.3,0.2l-0.3,0.1c0.1,0.3,0.6,0.4,0.6,0.9c0.2-0.1,0.5-0.6,0.9-0.3c-0.1,0.1-0.3,0.2-0.4,0.1
	c0,0,0.2,0.1,0.1,0.2l-0.3-0.1c0,0.2,0.2,0,0.3,0.1c-0.2,0.1-0.1,0.2-0.2,0.2c0,0,0-0.2-0.1-0.2c0,0.2,0,0.4-0.1,0.5
	c0.1-0.1,0.2-0.1,0.3,0c0.1,0.3-0.2,0.2-0.2,0.4c0.2,0,0.1,0.3,0.4,0.1c0,0.1-0.1,0.2-0.1,0.2c0.2,0.1,0.3,0.7,0.6,0.4l0,0l0,0
	c0.5,0.3,0.3,1.1,0.6,1.5l-0.1,0c0.2,0.2,0.4,0.6,0.6,0.7c0,0.1-0.1,0.3-0.2,0.3c0.2,0.2,0.3,0.2,0.3,0.5c-0.3-0.1-0.1,0.1-0.2-0.2
	c0.1,0.3-0.1,0.5,0.3,0.6c-0.3,0-0.2,0.3-0.1,0.5l0.1-0.3c0.1,0.1,0.1,0.3,0.2,0.4l-0.3,0.1c-0.1,0.8,1.1,0.7,0.7,1.5
	c0.3,0.1,0-0.4,0.3-0.4c0.1,0.3-0.2,0.8-0.2,0.9c0,0.4,0.6,0.1,0.7,0.6c0.1-0.1,0.4-0.3,0.6,0c0.1,0.3-0.3,0.5-0.5,0.4
	c0-0.1,0-0.1,0-0.1c-0.1-0.1-0.2-0.2-0.3,0l0.1,0c-0.1,0.2,0.1,0.5-0.1,0.5c0.2,0.2,0.2,0,0.2-0.2c0,0.4,0.2,0.5,0.3,0.9
	c0-0.1,0.1-0.2,0.2-0.1c0.1,0.6,0.3,0.1,0.5,0.5c-0.1,0.3-0.4,0.1-0.1,0.4c0,0.3-0.3,0.2-0.4,0.1c0.4,0.2,0.1,0.7,0.2,0.9l-0.2-0.1
	c0.1,0.1,0.1,0.2,0.2,0.2l0.2-0.2c0,0.1,0,0.2,0,0.2c0.2,0,0.3-0.2,0.6-0.1c-0.1,0.2,0.3,0.3,0,0.5c-0.1-0.5-0.3,0.2-0.5-0.2
	c0.1,0,0.1,0.1,0.1,0.3c0,0-0.1,0-0.1,0c-0.1,0.5,0.4,0,0.6,0.4c-0.2,0-0.3,0.2-0.2,0.3c-0.1-0.2,0.2-0.2,0.4-0.1
	c0,0.3,0.2,0.2,0.3,0.4l0-0.2c0.2,0,0.2,0.1,0.4,0.3c-0.1,0.1-0.2-0.1-0.2,0c0.4,0.1-0.1,0.6,0.2,0.8c-0.1,0.2-0.3,0.2-0.3,0.3
	c0.4,0.2-0.1,0.5,0.3,0.7c0.2-0.2,0.1-0.2,0.4-0.1l-0.4-0.5l0.5,0.2c-0.1-0.2-0.3-0.3-0.3-0.4c0.3,0.1,0.2,0.1,0.3-0.1
	c-0.2,0.4,0.4,0.4,0.3,0.7l-0.6,0.2c-0.1,0.5,0.6,0.6,0.7,1.2l0-0.2c0.2,0,0.2,0.3,0.3,0.4c-0.2,0.1-0.2,0.2-0.3,0.3
	c0.1-0.1,0.2,0.4,0.6,0.3l-0.1,0.3c0.1,0.5,0.7,0.2,0.9,0.7c-0.3,0-0.3,0.2-0.6,0c0.1,0.1,0.1,0.3,0.2,0.2c-0.1,0.1,0.4,0.3,0.3,0.5
	c0.1,0,0.3,0,0.4,0.1c0,0-0.1,0-0.1,0c0.1,0,0.2,0.2,0.4,0c-0.4,0.7,0.6,1.1,0.2,1.7c0.2,0.3,0.4,0.6,0.6,0.8c-0.1,0-0.1,0-0.1,0
	c0,0.4,0.6,0,0.6,0.5c-0.2,0.3-0.3-0.1-0.3,0c-0.6,0.3,0.3,0.5,0.1,0.9l-0.1,0c-0.1,0.3,0.5,0.4,0.6,0.8c0,0-0.1,0-0.1,0
	c0.4,0.1,0.7,0.5,1,0.8c-0.3,0-0.2-0.1-0.4,0.1c0.1,0.1,0.4-0.2,0.6,0c-0.1,0.2-0.1,0.4-0.3,0.6l-0.1-0.3c-0.3,0.3,0.2,0.4,0.2,0.5
	l-0.2,0c0.2,0.4,0.6,0.2,0.8,0.7l0.1-0.1c0.5,0.1-0.1,0.3,0.3,0.4l-0.3,0.2c0.2,0.1,0.6,0.4,0.8,0.7c-0.4,0-0.7-0.3-0.9-0.5
	c0.1,0.2,0.3,0.6,0.5,0.6c-0.1,0-0.2-0.1-0.2-0.2c0.4,0.1,0.7,0.3,0.8,0.6c-0.7,0.3,0.2,0.9-0.2,1.4c0.5,0.5,0.4,1.2,0.8,1.9
	c0.4-0.5,0.1,0.2,0.7-0.1c0.1,0.1,0.1,0.2,0.1,0.2l-0.1,0.6c-0.1,0.2-0.2-0.1-0.3,0c0.1,0.4-0.2,0.3-0.2,0.6c0.2-0.1,0.3,0,0.4,0.2
	l0.1-0.4c0.2,0.2,0.2,0.3,0.1,0.4l2.2-0.9c0.1-0.2,0.2-0.3-0.1-0.6l0.2,0.1c-0.2-0.2-0.4-1-1-1c0-0.1,0.2-0.2,0.3-0.1
	c-0.2-0.6-1.1-1.2-1-1.8l0.2,0c-0.1-0.1-0.3-0.1-0.3-0.3c0.1,0,0.2,0,0.1-0.1c-0.1,0-0.4-0.2-0.4-0.4l0.2,0.1
	c-0.1-0.7-0.8-0.8-1.1-1.2c0.4-0.2,0.4-0.7,0.3-1l0.1,0c-0.2-0.7-0.8-1-1.3-1.6c0.3-0.6-0.4-1.4-0.4-2.2c0,0.1-0.3,0.1-0.4,0
	c0-0.2-0.5-0.3-0.1-0.4l0,0.1c0.3-0.3,0.1-0.5,0-0.8l-0.5,0.2c0.4-0.9-1-1.5-0.5-2.2c-0.2-0.1-0.3-0.3-0.5-0.4l0.3-0.1
	c-0.1-0.4-0.2-0.7-0.5-1.2l0.2,0c-0.1-0.3-0.9,0-1.1-0.3l0.4-0.3c-0.2-0.5-0.1-1.2-0.7-1.5c0.1,0,0.2-0.1,0.2,0
	c-0.1-0.2-0.1-1-0.6-0.7c0.4-0.2-0.2-0.5-0.5-0.7l0.3-0.1c-0.4-0.1-0.5-0.1-0.8-0.3c0-0.1,0.2-0.2,0.2,0c0-0.3-0.3-0.1-0.3-0.5
	l0.2,0c-0.1-0.3-0.2-0.2-0.4-0.3c-0.2-0.1-0.2-0.5,0.1-0.7c-0.2,0-0.4,0-0.4-0.2c0.1-0.1,0.2,0,0.2,0c0-0.5-0.6-0.5-0.5-0.9
	c0.1,0,0.1-0.1,0.1-0.1c0.2,0.4,0.3,0.6,0.2,0.6c0.2-0.1,0.2-0.4,0.6-0.3c-0.3-0.2-0.9-0.4-0.9-0.7c0,0,0,0,0.1-0.1l0,0
	c0-0.1-0.1-0.1-0.1-0.2c0-0.1,0-0.2,0-0.3c0.2-0.1,0-0.4-0.1-0.5c-0.3,0.1-0.3-0.1-0.4,0.2c0,0,0,0,0.1,0.1c0,0,0,0,0.1,0l0,0
	c0,0.1,0.1,0.2,0.2,0.3c-0.2-0.1-0.4-0.1-0.3-0.3c-0.2,0-0.4,0-0.5,0c0.3-0.4,0.3-0.8,0.5-1c-0.3-0.4-0.5-1-1.2-1
	c-0.1-0.1,0.1-0.2,0.1-0.3c0.1,0.1,0.1,0.1,0.2,0.1c-0.2-0.2-0.4-0.7-0.7-0.6c0-0.4,0.4,0,0.2-0.4l0.1,0c0.2-1.1-1.5-1-1.2-2.2
	c0,0.1,0,0.1-0.1,0.2c-0.2-1.2-1.3-2.1-1.2-3.3c0-0.3-0.3-0.3-0.5-0.4l0.3-0.2l-0.5-0.2c-0.4-0.3,0.4-1.1-0.3-1.4l-0.2,0.2
	c-0.1-0.2-0.4-0.6-0.2-0.6c0,0-0.2,0-0.2-0.1l0.1-0.1l-0.5-0.4c-0.1-0.4,0.6-0.2,0.4-0.8c-0.1-0.2-0.7-0.4-0.8-0.3
	c0,0.1,0,0.3-0.2,0.3l-0.2-0.2c-0.5,0.2-1,0.2-1.1,0.8l0.4,0.2l-0.2,0.2l-0.1-0.3c-0.1,0.2,0.1,0.3,0.3,0.3
	c-0.1,0.1-0.2,0.2-0.2,0.2l0.6,0.1c-0.2,0.1-0.4,0-0.4,0.3c0.3,0.1,0.3-0.3,0.6-0.1c-0.1,0.2-0.3,0.3-0.1,0.4
	c-0.1,0.1-0.2,0.1-0.3,0c0.2,0.1,0.2,0.4,0.5,0.4c-0.2,0.3,0.3,0.5-0.1,0.7c0.1,0,0.5,0.1,0.5,0.3c-0.6-0.1,0.2,0.6-0.4,0.7
	c0.5,0,0.5,0.6,0.9,0.9c0,0-0.1,0-0.1,0c0,0.2-0.1,0.3-0.1,0.5c0.4-0.1,0.6,0.1,0.9,0.2c-0.2,0.4-0.5,0-0.8,0.3
	c0.3-0.1,0.5,0.3,0.7,0.1c-0.1,0.3,0,0.2-0.3,0.4c0.5-0.2,0.2,0.1,0.5,0.2c-0.1,0.4-0.4,0.3-0.1,0.5
	C163.2,136.5,162.9,136.3,162.9,136.3L162.9,136.3z M166.8,143.1l-0.1-0.1L166.8,143.1L166.8,143.1z M167,143.7
	c0-0.1-0.1-0.2-0.1-0.3c0.1-0.1,0.2-0.1,0.2,0C167.1,143.4,167.1,143.5,167,143.7z M168.3,141.6c0.1,0.1,0,0.1,0,0.2
	c0,0-0.1-0.1-0.1-0.1l0,0C168.2,141.6,168.3,141.6,168.3,141.6z"/>
<path class="st11" d="M167.9,141.6C167.9,141.6,167.9,141.6,167.9,141.6C167.9,141.6,167.8,141.6,167.9,141.6L167.9,141.6
	L167.9,141.6L167.9,141.6z"/>
<path class="st11" d="M162.1,133.7L162.1,133.7C162.1,133.7,162.1,133.7,162.1,133.7C162.1,133.7,162.1,133.7,162.1,133.7z"/>
<path class="st11" d="M170.2,152.1L170.2,152.1L170.2,152.1L170.2,152.1z"/>
<path class="st11" d="M161.5,130C161.5,130,161.5,130,161.5,130C161.5,130,161.5,130,161.5,130z"/>
<path class="st11" d="M160.9,128.6l0-0.2C160.9,128.5,160.9,128.5,160.9,128.6z"/>
<path class="st11" d="M160.5,127.5c0,0-0.1,0-0.1,0L160.5,127.5L160.5,127.5z"/>
<path class="st11" d="M168.8,144.4C168.8,144.4,168.8,144.5,168.8,144.4C168.9,144.5,168.9,144.5,168.8,144.4z"/>
<path class="st11" d="M165.8,139.6c0.1,0,0.1,0.1,0.2,0.1C166,139.6,166,139.5,165.8,139.6z"/>
<path class="st11" d="M171.7,150L171.7,150L171.7,150L171.7,150z"/>
<path class="st11" d="M166.1,140c0-0.1,0-0.2-0.1-0.2C166,139.8,166.1,139.9,166.1,140z"/>
<path class="st11" d="M160.1,128.1L160.1,128.1C160.1,128.2,160.1,128.2,160.1,128.1L160.1,128.1z"/>
<path class="st11" d="M160.1,128.2L160.1,128.2C160.2,128.2,160.1,128.2,160.1,128.2z"/>
<path class="st11" d="M160.3,128.3l-0.1-0.1C160.2,128.2,160.2,128.3,160.3,128.3z"/>
<path class="st11" d="M159.6,126.6l-0.1,0C159.4,126.7,159.5,126.7,159.6,126.6z"/>
<path class="st11" d="M159.3,126.2c0,0.1-0.1,0.3,0,0.5l0.1,0C159.3,126.6,159.5,126.2,159.3,126.2L159.3,126.2z"/>
<path class="st11" d="M158.9,127l-0.1-0.4c-0.1,0.1-0.2,0.3-0.3,0.1C158.5,127.3,158.8,126.5,158.9,127z"/>
<path class="st11" d="M159.3,128.2c-0.1-0.2-0.1,0.1-0.2,0.1C159.2,128.4,159.3,128.4,159.3,128.2z"/>
<path class="st11" d="M163.1,136.3l-0.2,0.1C162.9,136.5,162.9,136.4,163.1,136.3z"/>
<path class="st11" d="M165,137.3l0.1-0.2l-0.2,0L165,137.3z"/>
<path class="st11" d="M163.8,139L163.8,139l0.1,0.2L163.8,139z"/>
<path class="st11" d="M170.2,152.6l0.3-0.2C170.4,152.4,170,152.5,170.2,152.6z"/>
<path class="st11" d="M173.2,158.4c-0.1,0.1-0.1,0.3,0.1,0.4C173.2,158.6,173.3,158.4,173.2,158.4z"/>
<path class="st11" d="M173.2,152.6l0.2,0.1l-0.2-0.2L173.2,152.6z"/>
<radialGradient id="SVGID_00000138557783193767357580000017526527083694961545_" cx="-184.6599" cy="776.2606" r="1" gradientTransform="matrix(-34.9765 82.4554 82.4554 34.9765 -70266.0391 -11712.7793)" gradientUnits="userSpaceOnUse">
	<stop  offset="0" style="stop-color:#FE6C0F"/>
	<stop  offset="1.000000e-04" style="stop-color:#FE5000"/>
	<stop  offset="0.53" style="stop-color:#FEB70F"/>
	<stop  offset="1" style="stop-color:#FE5000"/>
</radialGradient>
<path style="fill:url(#SVGID_00000138557783193767357580000017526527083694961545_);" d="M184.3,205.2c-1.3-0.2-2.7-0.7-4.2-1.3
	l-47.8-20.3c-4.7-2-7.9-5.5-9.2-9.9c-1.3-4.4-0.4-9.1,2.5-13.3l0,0l22.5-23l0.1,0c3.6-2.4,7.7-3.3,11.6-2.6c2.1,0.4,4.1,1.2,5.9,2.5
	l0.2,0.1l0.1,0.2c1,2.3,2.1,4.7,3.1,7c1.9,4.2,3.8,8.5,5.6,12.7c4,9.2,6.6,16.8,10,27.7l0.3,1.1c1.8,5.7,3.6,11.5,5.6,17.3l0.2,0.5
	l-0.4,0.3C188.9,205.3,186.8,205.7,184.3,205.2L184.3,205.2z"/>
<path class="st13" d="M159.7,135.5c2,0.4,3.9,1.1,5.6,2.3c2.9,6.6,5.9,13.1,8.7,19.7c4.1,9.5,6.8,17.4,9.9,27.7
	c1.9,6.1,3.8,12.3,5.9,18.4c-1.2,1-3.1,1.3-5.5,0.9c-1.2-0.2-2.6-0.6-4-1.3L132.6,183c-9.2-3.9-12.1-13.8-6.4-22.1l22.4-22.9
	C152.3,135.7,156.1,134.9,159.7,135.5z M160,134.1c-4-0.7-8.3,0.3-12.1,2.7l-0.1,0.1l-0.1,0.1l-22.4,22.9l-0.1,0.1l-0.1,0.1
	c-3,4.4-4,9.3-2.6,13.9c1.3,4.6,4.8,8.3,9.6,10.4l47.8,20.3c1.5,0.7,3,1.1,4.4,1.3c2.8,0.5,5,0.1,6.6-1.2l0.8-0.6l-0.3-1
	c-2-5.7-3.8-11.6-5.6-17.3l-0.3-1.1c-3.4-10.9-6-18.6-10-27.8c-1.8-4.3-3.8-8.6-5.7-12.7c-1-2.3-2.1-4.6-3.1-7l-0.2-0.4l-0.3-0.2
	C164.2,135.3,162.2,134.5,160,134.1L160,134.1z"/>
<radialGradient id="SVGID_00000010284452677408306350000008614780045907268007_" cx="-184.6567" cy="776.2649" r="1" gradientTransform="matrix(-34.9298 82.3453 82.3453 34.9298 -70171.9375 -11699.1035)" gradientUnits="userSpaceOnUse">
	<stop  offset="0" style="stop-color:#FE5000"/>
	<stop  offset="0.53" style="stop-color:#FEB70F"/>
	<stop  offset="1" style="stop-color:#FE8C0F"/>
</radialGradient>
<path style="fill:url(#SVGID_00000010284452677408306350000008614780045907268007_);" d="M159.3,290.9c-1.3-0.2-2.6-0.7-3.8-1.4
	c-11.9-6.7-20.9-14.6-27.7-24.1c-3-4.1-3.9-8.8-2.6-13.1c1.3-4.3,4.5-7.7,9.2-9.6l45.7-18.5c3-1.2,5.5-1.6,7.6-1.3
	c1.8,0.3,3.1,1.2,3.9,2.7c1.2,2.2,1,5.5-0.7,9.5l-2.9,6.8c-1.2,2.9-2.7,5.8-4.2,9c-4,8.2-8.1,16.7-8.8,25.1
	c-0.4,4.8-3.1,9.7-6.8,12.5C165.3,290.6,162.3,291.5,159.3,290.9L159.3,290.9z"/>
<path class="st13" d="M187.4,223.7c4.1,0.7,5.3,4.8,2.6,11.2c-1,2.3-1.9,4.6-2.9,6.8c-4.5,10.6-12.1,22.6-13.1,34.3
	c-0.6,7.2-6.9,15.6-14.7,14.2c-1.2-0.2-2.4-0.6-3.6-1.3c-10.8-6.1-20.3-13.7-27.5-23.9c-5.8-8.1-3-17.9,6.3-21.6l45.7-18.5
	C183.1,223.7,185.5,223.4,187.4,223.7L187.4,223.7z M187.6,222.2c-2.2-0.4-4.9,0.1-8,1.3L134,242c-4.9,2-8.4,5.6-9.7,10.1
	c-1.3,4.5-0.3,9.4,2.8,13.7c6.9,9.6,16,17.5,28,24.3c1.3,0.8,2.7,1.3,4.1,1.5c3.2,0.6,6.5-0.3,9.3-2.5c3.9-3,6.6-8.1,7.1-13.1
	c0.7-8.2,4.8-16.7,8.8-24.8c1.5-3.1,2.9-6.1,4.2-9c0.5-1.2,1-2.4,1.5-3.6l1.4-3.2c1.8-4.2,2-7.7,0.7-10.2
	C191.2,223.6,189.7,222.6,187.6,222.2L187.6,222.2z"/>
<radialGradient id="SVGID_00000048478131675677976330000015393159952711524496_" cx="-184.6661" cy="776.2519" r="1" gradientTransform="matrix(-35.0698 82.6755 82.6755 35.0698 -70454.7812 -11746.3369)" gradientUnits="userSpaceOnUse">
	<stop  offset="0" style="stop-color:#FE5000"/>
	<stop  offset="0.53" style="stop-color:#FEB70F"/>
	<stop  offset="1" style="stop-color:#FE8C0F"/>
</radialGradient>
<path style="fill:url(#SVGID_00000048478131675677976330000015393159952711524496_);" d="M186.1,299.3c-4.9-0.9-8.7-3.5-10.8-7.3
	c-2.1-3.9-2.2-8.6-0.2-13.2l18.1-42.6c2.1-5.1,5.2-7.7,8.3-7.3l0.4,0.1l0.2,0.3c2.5,4.3,5.2,8.5,7.8,12.7l0.9,1.3
	c0.6,1,1.2,1.9,1.8,2.9l0,0.1l12.7,31.5c1.9,4.7,1.7,9.5-0.5,13.6c-2.2,4.1-6.1,6.9-11.1,7.9l-0.1,0l-27,0.1L186.1,299.3
	L186.1,299.3z"/>
<path class="st13" d="M201.4,229.6c2.7,4.7,5.7,9.4,8.6,14c0.6,1,1.2,1.9,1.8,2.9l12.7,31.5c3.7,9.3-1.2,18.5-11,20.5l-26.9,0.1
	c-0.1,0-0.3,0-0.4-0.1c-9.6-1.7-14.3-10.4-10.5-19.5l18.1-42.6C195.9,231.6,198.7,229.3,201.4,229.6L201.4,229.6z M202.3,228.3
	l-0.7-0.1c-3.5-0.5-6.8,2.3-9.1,7.7l-18.1,42.6c-2.1,4.8-2,9.7,0.3,13.8c2.2,4.1,6.2,6.8,11.3,7.7c0.1,0,0.3,0,0.4,0.1l0.1,0l0.1,0
	l26.9-0.1l0.1,0l0.1,0c5.2-1,9.3-4,11.6-8.2c2.3-4.3,2.5-9.3,0.5-14.2L213.2,246l0-0.1l-0.1-0.1c-0.5-0.8-1.1-1.9-1.8-2.9l-0.9-1.4
	c-2.6-4.1-5.3-8.4-7.7-12.6L202.3,228.3L202.3,228.3z"/>
<radialGradient id="SVGID_00000075879920315345271910000003822375996330260136_" cx="-184.6737" cy="776.2413" r="1" gradientTransform="matrix(-35.1848 82.9465 82.9465 35.1848 -70684.125 -11783.5)" gradientUnits="userSpaceOnUse">
	<stop  offset="0" style="stop-color:#FE6C0F"/>
	<stop  offset="1.000000e-04" style="stop-color:#FE6C0F"/>
	<stop  offset="0.53" style="stop-color:#FEB70F"/>
	<stop  offset="1" style="stop-color:#FE8C0F"/>
</radialGradient>
<path style="fill:url(#SVGID_00000075879920315345271910000003822375996330260136_);" d="M123.8,241.3c-6.3-1.1-11.1-5.9-12.6-12.5
	l0-0.1l-0.4-31l0-0.1c0.7-4.4,2.8-8.1,6-10.3c3-2.1,6.8-3,10.7-2.3c1.3,0.2,2.6,0.6,3.9,1.2l47.7,20.2c4.8,2,7.4,4.8,7.3,7.7
	c0,3-2.7,5.7-7.5,7.6l-45.8,18.5C130,241.5,126.8,241.8,123.8,241.3L123.8,241.3z"/>
<path class="st13" d="M127.3,185.7c1.2,0.2,2.5,0.6,3.7,1.1l47.7,20.2c9.2,3.9,9.2,10.2-0.1,13.9l-45.8,18.5c-3,1.2-6.1,1.5-8.9,1
	c-5.8-1-10.5-5.4-12-12l-0.4-30.9C112.8,189.2,119.6,184.4,127.3,185.7L127.3,185.7z M127.6,184.3c-4.1-0.7-8.1,0.1-11.2,2.4
	c-3.3,2.4-5.6,6.2-6.3,10.8l0,0.1l0,0.1l0.4,30.9l0,0.1l0,0.1c1.6,6.9,6.6,12,13.2,13.1c3.2,0.6,6.5,0.2,9.7-1.1l45.8-18.5
	c5.1-2.1,7.9-5,7.9-8.3c0-3.3-2.7-6.3-7.8-8.4l-47.7-20.2C130.3,184.9,128.9,184.5,127.6,184.3L127.6,184.3z"/>
<g>
	<g>
		<g>
			<path class="st17" d="M187.3,227c-0.1,0.1-0.2,0.2-0.3,0.4c-0.1,0.1-0.2,0.2-0.3,0.2c-0.1,0.1-0.2,0.2-0.3,0.2
				c-0.2,0.1-0.4,0.2-0.7,0.2c-0.1,0-0.2,0-0.3,0c-0.4-0.1-0.7-0.1-1.1-0.2c-0.4-0.1-1-0.1-1.3-0.2c-0.1,0-0.1-0.1-0.2-0.2
				c-0.1-0.1-0.1-0.2-0.2-0.2c0-0.1-0.1-0.1-0.1-0.2c0-0.1-0.1-0.2-0.1-0.5c-0.1-0.3,0-0.6,0.1-0.9c0.1-0.1,0.1-0.3,0.2-0.4
				c0.2-0.3,0.4-0.5,0.7-0.7c0.3-0.2,0.6-0.3,0.9-0.4c0.3-0.1,0.6-0.1,0.9-0.1c0.1,0,0.3,0,0.4,0c0.1,0,0.3,0,0.4,0.1
				c0.2,0,0.3,0.1,0.5,0.2c0.2,0.1,0.3,0.2,0.4,0.3c0.3,0.2,0.5,0.5,0.6,0.8c0.1,0.3,0.1,0.5,0.1,0.8c0,0.1,0,0.2,0,0.3
				c0,0.1-0.1,0.2-0.1,0.3C187.4,226.8,187.3,226.9,187.3,227L187.3,227z"/>
		</g>
	</g>
	<g>
		<g>
			<path class="st18" d="M202.3,235.5c0-0.2,0-0.3-0.1-0.5c0-0.1-0.1-0.3-0.1-0.4c-0.1-0.2-0.1-0.3-0.1-0.3
				c-0.1-0.2-0.2-0.4-0.5-0.5c-0.1,0-0.2-0.1-0.3-0.1c-0.4-0.1-0.6-0.2-1.1-0.4c-0.4-0.1-1-0.4-1.3-0.4c-0.1,0-0.2,0-0.3,0.1
				c-0.1,0-0.2,0.1-0.3,0.2c-0.1,0.1-0.1,0.1-0.2,0.2c-0.1,0.1-0.2,0.2-0.4,0.4c-0.2,0.3-0.3,0.6-0.4,1c0,0.2,0,0.3,0,0.5
				c0,0.3,0.1,0.7,0.3,1c0.1,0.3,0.3,0.6,0.6,0.8c0.2,0.2,0.5,0.4,0.7,0.5c0.1,0.1,0.2,0.1,0.4,0.2c0.1,0,0.2,0.1,0.4,0.1
				c0.2,0,0.3,0,0.5,0c0.2,0,0.3,0,0.5-0.1c0.3-0.1,0.7-0.2,0.9-0.5c0.2-0.2,0.4-0.5,0.5-0.8c0-0.1,0.1-0.2,0.1-0.3
				c0-0.1,0.1-0.2,0.1-0.4C202.3,235.7,202.3,235.6,202.3,235.5L202.3,235.5z"/>
		</g>
	</g>
</g>
<g>
	<g>
		<g>
			<path class="st17" d="M177.7,209.9c0.1,0.1,0.2,0.2,0.3,0.3c0.1,0.1,0.2,0.2,0.2,0.3c0.1,0.1,0.1,0.2,0.2,0.3
				c0.1,0.2,0.2,0.4,0.1,0.7c0,0.1,0,0.2,0,0.3c-0.1,0.4-0.1,0.7-0.2,1.1c-0.1,0.4-0.2,1-0.3,1.3c0,0.1-0.1,0.1-0.2,0.2
				c-0.1,0-0.2,0.1-0.2,0.1c-0.1,0-0.2,0.1-0.2,0.1c-0.1,0-0.2,0.1-0.5,0.1c-0.3,0-0.6,0-0.9-0.1c-0.1-0.1-0.3-0.1-0.4-0.2
				c-0.2-0.2-0.5-0.5-0.6-0.8c-0.2-0.3-0.3-0.6-0.3-0.9c-0.1-0.3-0.1-0.6,0-0.9c0-0.1,0-0.3,0.1-0.4s0.1-0.3,0.1-0.4
				c0.1-0.2,0.1-0.3,0.2-0.4c0.1-0.1,0.2-0.3,0.3-0.4c0.2-0.3,0.5-0.4,0.8-0.5c0.3-0.1,0.5-0.1,0.8,0c0.1,0,0.2,0,0.3,0.1
				c0.1,0,0.2,0.1,0.3,0.1C177.6,209.8,177.7,209.9,177.7,209.9L177.7,209.9z"/>
		</g>
	</g>
	<g>
		<g>
			<path class="st18" d="M187.3,195.5c-0.2,0-0.3,0-0.5,0c-0.1,0-0.3,0-0.4,0.1c-0.2,0.1-0.3,0.1-0.4,0.1c-0.3,0.1-0.4,0.2-0.5,0.4
				c0,0.1-0.1,0.2-0.1,0.3c-0.2,0.4-0.3,0.6-0.4,1c-0.2,0.4-0.4,0.9-0.5,1.2c0,0.1,0,0.2,0,0.3c0,0.1,0.1,0.2,0.1,0.3
				c0.1,0.1,0.1,0.1,0.1,0.2c0.1,0.1,0.2,0.2,0.4,0.4c0.3,0.2,0.6,0.4,0.9,0.5c0.2,0,0.3,0.1,0.5,0.1c0.3,0,0.7-0.1,1-0.2
				c0.3-0.1,0.6-0.3,0.9-0.5c0.2-0.2,0.4-0.4,0.6-0.7c0.1-0.1,0.1-0.2,0.2-0.3c0-0.1,0.1-0.2,0.1-0.4c0-0.2,0.1-0.3,0.1-0.5
				c0-0.2,0-0.3,0-0.5c-0.1-0.3-0.2-0.7-0.4-1c-0.2-0.2-0.4-0.4-0.7-0.6c-0.1,0-0.2-0.1-0.3-0.1c-0.1,0-0.2-0.1-0.4-0.1
				C187.5,195.5,187.4,195.5,187.3,195.5L187.3,195.5z"/>
		</g>
	</g>
</g>
<g>
	<g>
		<g>
			<path class="st17" d="M181.7,231.5c-0.1,0.2-0.3,0.3-0.4,0.5c-0.1,0.1-0.3,0.2-0.4,0.3c-0.2,0.1-0.3,0.2-0.4,0.3
				c-0.3,0.2-0.5,0.3-0.9,0.2c-0.1,0-0.3,0-0.4,0c-0.5-0.1-0.9-0.1-1.5-0.2c-0.6-0.1-1.4-0.2-1.8-0.3c-0.1,0-0.2-0.1-0.3-0.2
				c-0.1-0.1-0.2-0.2-0.2-0.3c-0.1-0.1-0.1-0.2-0.1-0.3c-0.1-0.1-0.1-0.3-0.2-0.6c-0.1-0.4,0-0.8,0.1-1.2c0.1-0.2,0.2-0.4,0.3-0.5
				c0.2-0.4,0.6-0.7,1-0.9c0.4-0.2,0.8-0.4,1.2-0.5c0.4-0.1,0.8-0.2,1.2-0.2c0.2,0,0.4,0,0.5,0c0.2,0,0.4,0.1,0.5,0.1
				c0.2,0.1,0.4,0.1,0.6,0.2c0.2,0.1,0.4,0.2,0.6,0.3c0.4,0.3,0.6,0.6,0.8,1c0.1,0.4,0.2,0.7,0.1,1.1c0,0.1,0,0.2-0.1,0.4
				c0,0.1-0.1,0.3-0.2,0.4C181.9,231.3,181.8,231.4,181.7,231.5L181.7,231.5z"/>
		</g>
	</g>
	<g>
		<g>
			<path class="st18" d="M202.1,242.9c0-0.2,0-0.5-0.1-0.7c0-0.2-0.1-0.3-0.2-0.5c-0.1-0.2-0.1-0.4-0.2-0.5
				c-0.2-0.3-0.3-0.5-0.6-0.7c-0.1,0-0.2-0.1-0.4-0.1c-0.5-0.2-0.9-0.3-1.4-0.5c-0.6-0.2-1.3-0.5-1.7-0.6c-0.1,0-0.3,0.1-0.3,0.1
				c-0.1,0-0.3,0.1-0.4,0.2c-0.1,0.1-0.2,0.2-0.3,0.2c-0.1,0.1-0.2,0.2-0.5,0.5c-0.3,0.4-0.5,0.8-0.5,1.3c0,0.2,0,0.5,0,0.7
				c0,0.5,0.2,0.9,0.4,1.4c0.2,0.4,0.5,0.8,0.8,1.1c0.3,0.3,0.6,0.5,1,0.7c0.2,0.1,0.3,0.2,0.5,0.2c0.2,0.1,0.3,0.1,0.5,0.1
				c0.2,0,0.4,0.1,0.7,0.1c0.2,0,0.4,0,0.7-0.1c0.5-0.1,0.9-0.3,1.2-0.7c0.3-0.3,0.5-0.6,0.7-1c0.1-0.1,0.1-0.3,0.1-0.4
				c0-0.2,0.1-0.3,0.1-0.5C202.1,243.2,202.1,243.1,202.1,242.9L202.1,242.9z"/>
		</g>
	</g>
</g>
<g>
	<g>
		<g>
			<path class="st17" d="M168.9,208.5c0.2,0.1,0.3,0.3,0.5,0.4c0.1,0.1,0.2,0.3,0.3,0.4c0.1,0.2,0.2,0.3,0.2,0.4
				c0.1,0.3,0.3,0.5,0.2,0.9c0,0.1,0,0.3-0.1,0.4c-0.1,0.5-0.2,0.9-0.3,1.5c-0.1,0.6-0.3,1.4-0.4,1.8c0,0.1-0.2,0.2-0.2,0.2
				c-0.1,0.1-0.2,0.2-0.3,0.2c-0.1,0-0.2,0.1-0.3,0.1c-0.1,0.1-0.3,0.1-0.6,0.1c-0.4,0.1-0.8,0-1.2-0.2c-0.2-0.1-0.4-0.2-0.5-0.3
				c-0.3-0.3-0.6-0.6-0.8-1c-0.2-0.4-0.4-0.8-0.4-1.3c-0.1-0.4-0.1-0.8-0.1-1.3c0-0.2,0-0.4,0.1-0.5c0-0.2,0.1-0.3,0.1-0.5
				c0.1-0.2,0.2-0.4,0.3-0.6c0.1-0.2,0.2-0.4,0.4-0.5c0.3-0.3,0.7-0.6,1.1-0.7c0.4-0.1,0.7-0.1,1.1-0.1c0.1,0,0.2,0.1,0.3,0.1
				c0.1,0.1,0.3,0.1,0.4,0.2C168.6,208.3,168.8,208.4,168.9,208.5L168.9,208.5z"/>
		</g>
	</g>
	<g>
		<g>
			<path class="st18" d="M181.7,189c-0.2,0-0.5,0-0.7,0c-0.2,0-0.4,0.1-0.5,0.1c-0.2,0.1-0.4,0.1-0.5,0.2c-0.3,0.2-0.5,0.2-0.7,0.6
				c-0.1,0.1-0.1,0.2-0.2,0.4c-0.2,0.5-0.4,0.8-0.6,1.4c-0.2,0.6-0.6,1.3-0.7,1.7c0,0.1,0,0.3,0.1,0.3c0,0.1,0.1,0.3,0.2,0.4
				c0.1,0.1,0.1,0.2,0.2,0.3c0.1,0.1,0.2,0.2,0.5,0.5c0.4,0.3,0.8,0.5,1.3,0.6c0.2,0,0.5,0.1,0.7,0.1c0.5,0,0.9-0.1,1.4-0.3
				c0.4-0.2,0.8-0.4,1.2-0.7c0.3-0.3,0.6-0.6,0.8-0.9c0.1-0.2,0.2-0.3,0.2-0.5c0.1-0.2,0.1-0.3,0.2-0.5c0.1-0.2,0.1-0.4,0.1-0.6
				c0-0.2,0-0.4,0-0.7c-0.1-0.5-0.3-0.9-0.6-1.3c-0.3-0.3-0.6-0.6-1-0.8c-0.1-0.1-0.2-0.1-0.4-0.2c-0.2-0.1-0.3-0.1-0.5-0.1
				C182.1,189.1,181.9,189,181.7,189L181.7,189z"/>
		</g>
	</g>
</g>
</svg>
