<svg id="Instagram" xmlns="http://www.w3.org/2000/svg" width="29" height="29" viewBox="0 0 29 29">
  <rect id="Instagram-2" data-name="Instagram" width="29" height="29" rx="14.5" fill="#5b5b5b"/>
  <path id="Vector" d="M8.7,1.568c2.325,0,2.6.01,3.516.052a4.749,4.749,0,0,1,1.617.3,2.7,2.7,0,0,1,1,.649,2.658,2.658,0,0,1,.649,1,4.838,4.838,0,0,1,.3,1.617c.041.919.052,1.192.052,3.516s-.01,2.6-.052,3.516a4.749,4.749,0,0,1-.3,1.617,2.7,2.7,0,0,1-.649,1,2.658,2.658,0,0,1-1,.649,4.838,4.838,0,0,1-1.617.3c-.919.041-1.192.052-3.516.052s-2.6-.01-3.516-.052a4.749,4.749,0,0,1-1.617-.3,2.7,2.7,0,0,1-1-.649,2.658,2.658,0,0,1-.649-1,4.838,4.838,0,0,1-.3-1.617c-.041-.919-.052-1.192-.052-3.516s.01-2.6.052-3.516a4.749,4.749,0,0,1,.3-1.617,2.7,2.7,0,0,1,.649-1,2.658,2.658,0,0,1,1-.649,4.838,4.838,0,0,1,1.617-.3C6.1,1.575,6.38,1.568,8.7,1.568ZM8.7,0C6.338,0,6.041.01,5.112.052A6.378,6.378,0,0,0,3,.456,4.241,4.241,0,0,0,1.461,1.461,4.316,4.316,0,0,0,.456,3a6.382,6.382,0,0,0-.4,2.114C.01,6.041,0,6.338,0,8.7s.01,2.66.052,3.589a6.42,6.42,0,0,0,.4,2.114,4.241,4.241,0,0,0,1.005,1.541A4.316,4.316,0,0,0,3,16.95a6.382,6.382,0,0,0,2.114.4c.929.041,1.223.052,3.589.052s2.66-.01,3.589-.052a6.42,6.42,0,0,0,2.114-.4,4.241,4.241,0,0,0,1.541-1.005A4.316,4.316,0,0,0,16.953,14.4a6.382,6.382,0,0,0,.4-2.114c.041-.929.052-1.223.052-3.589s-.01-2.66-.052-3.589A6.42,6.42,0,0,0,16.953,3a4.241,4.241,0,0,0-1.005-1.541A4.316,4.316,0,0,0,14.408.453a6.382,6.382,0,0,0-2.114-.4C11.361.01,11.064,0,8.7,0Z" transform="translate(5.801 5.8)" fill="#fff"/>
  <path id="Vector-2" data-name="Vector" d="M8.7,1.568c2.325,0,2.6.01,3.516.052a4.749,4.749,0,0,1,1.617.3,2.7,2.7,0,0,1,1,.649,2.658,2.658,0,0,1,.649,1,4.838,4.838,0,0,1,.3,1.617c.041.919.052,1.192.052,3.516s-.01,2.6-.052,3.516a4.749,4.749,0,0,1-.3,1.617,2.7,2.7,0,0,1-.649,1,2.658,2.658,0,0,1-1,.649,4.838,4.838,0,0,1-1.617.3c-.919.041-1.192.052-3.516.052s-2.6-.01-3.516-.052a4.749,4.749,0,0,1-1.617-.3,2.7,2.7,0,0,1-1-.649,2.658,2.658,0,0,1-.649-1,4.838,4.838,0,0,1-.3-1.617c-.041-.919-.052-1.192-.052-3.516s.01-2.6.052-3.516a4.749,4.749,0,0,1,.3-1.617,2.7,2.7,0,0,1,.649-1,2.658,2.658,0,0,1,1-.649,4.838,4.838,0,0,1,1.617-.3C6.1,1.575,6.38,1.568,8.7,1.568Z" transform="translate(5.801 5.8)" fill="#fff"/>
  <path id="Vector-3" data-name="Vector" d="M4.47,0a4.47,4.47,0,1,0,4.47,4.47A4.47,4.47,0,0,0,4.47,0Zm0,7.368a2.9,2.9,0,1,1,2.9-2.9A2.9,2.9,0,0,1,4.47,7.368Z" transform="translate(10.033 10.035)" fill="#5b5b5b"/>
  <path id="Vector-4" data-name="Vector" d="M2.086,1.043A1.043,1.043,0,1,1,1.043,0,1.043,1.043,0,0,1,2.086,1.043Z" transform="translate(18.105 8.812)" fill="#5b5b5b"/>
</svg>
