<svg id="LinkedIn" xmlns="http://www.w3.org/2000/svg" width="29" height="29" viewBox="0 0 29 29">
  <rect id="LinkedIn-2" data-name="LinkedIn" width="29" height="29" rx="14.5" fill="#5b5b5b"/>
  <path id="Vector" d="M14.773,0H1.177A1.177,1.177,0,0,0,0,1.177v13.6A1.177,1.177,0,0,0,1.177,15.95h13.6a1.177,1.177,0,0,0,1.177-1.177V1.177A1.177,1.177,0,0,0,14.773,0ZM4.754,13.587h-2.4V5.97h2.4Zm-1.2-8.673A1.377,1.377,0,1,1,4.938,3.539,1.357,1.357,0,0,1,3.553,4.915Zm10.04,8.679H11.2V9.433c0-1.227-.522-1.606-1.2-1.606A1.459,1.459,0,0,0,8.592,9.464v4.13h-2.4V5.976H8.5V7.031h.031a2.617,2.617,0,0,1,2.28-1.269c1.338,0,2.783.794,2.783,3.12Z" transform="translate(6.525 6.525)" fill="#fff"/>
</svg>
