<svg id="Twitter" xmlns="http://www.w3.org/2000/svg" width="29" height="29" viewBox="0 0 29 29">
  <rect id="Twitter-2" data-name="Twitter" width="29" height="29" rx="14.5" fill="#5b5b5b"/>
  <path id="Vector" d="M5.343,13.848A9.88,9.88,0,0,0,15.29,3.9c0-.152,0-.3-.007-.449A7.162,7.162,0,0,0,17.03,1.639a7.1,7.1,0,0,1-2.008.551A3.494,3.494,0,0,0,16.559.254,7.079,7.079,0,0,1,14.34,1.1,3.5,3.5,0,0,0,8.294,3.495a3.2,3.2,0,0,0,.094.8A9.918,9.918,0,0,1,1.182.638,3.494,3.494,0,0,0,2.269,5.3,3.434,3.434,0,0,1,.689,4.865v.043A3.5,3.5,0,0,0,3.494,8.338a3.485,3.485,0,0,1-.921.123,3.338,3.338,0,0,1-.66-.065,3.491,3.491,0,0,0,3.263,2.429A7.028,7.028,0,0,1,.834,12.318,6.357,6.357,0,0,1,0,12.267,9.74,9.74,0,0,0,5.343,13.848Z" transform="translate(6.503 8.301)" fill="#fff"/>
</svg>
